<?xml version="1.0" encoding="UTF-8" standalone="no"?>
<!DOCTYPE svg PUBLIC "-//W3C//DTD SVG 1.1//EN" "http://www.w3.org/Graphics/SVG/1.1/DTD/svg11.dtd">
<svg width="100%" height="100%" viewBox="0 0 1024 1024" version="1.1" xmlns="http://www.w3.org/2000/svg" xmlns:xlink="http://www.w3.org/1999/xlink" xml:space="preserve" xmlns:serif="http://www.serif.com/" style="fill-rule:evenodd;clip-rule:evenodd;stroke-linejoin:round;stroke-miterlimit:2;">
    <g transform="matrix(0.1,0,0,-0.1,0,1024)">
        <g transform="matrix(10,0,0,-10,0,10240)">
            <path d="M582.1,564.6C597.2,567.5 609.7,571.4 616.5,575.4C622,578.7 624.3,583.1 626.5,594.3C628.6,605.1 631,628.7 631.7,644.7C632.4,660.2 633.4,663 638.4,663C639.7,663 649.9,659.7 661.1,655.6C684.9,647 692.2,644.7 695.2,645.2C697,645.4 696.2,646.4 690.4,651C681.1,658.5 675.2,662.6 664.7,668.9C654.2,675.2 624.4,689.8 620.2,690.6L617.2,691.2L615.2,682.4C614.1,677.5 610.4,657.3 607,637.5C603.6,617.7 600.3,600.4 599.6,599C598,595.4 595.1,594.4 579,591.6C571,590.2 560.3,588.1 555.1,586.9L545.8,584.8L550.7,580.5C553.3,578.2 558.2,573.1 561.5,569.1C564.7,565.2 567.8,562 568.2,562C568.6,562 574.9,563.2 582.1,564.6Z" style="fill:rgb(13,220,44);"/>
        </g>
        <g transform="matrix(10,0,0,-10,0,10240)">
            <path d="M345.7,491.8C353.6,502.4 365.5,522.2 375.8,542C384.8,559.3 386.9,562 390.7,562C392.2,562 404.5,557 418.2,551C431.8,544.9 443.4,540 444,540C446.9,540 447.9,532.7 445.3,529.8C443.3,527.5 441.3,527.5 435,529.9C431.7,531.2 430,531.4 430,530.7C430,527.7 433.3,519.1 437.2,511.8C440.8,505.1 441.6,504.1 442.5,505.5C452.5,522.7 463.1,533.3 482.6,545.5C497.9,555.1 517.7,561.8 537.7,564.2L548,565.4L545.8,567.7C542.2,571.5 529.4,580 521.7,583.5C505.6,590.9 484.9,593.8 470,590.7C461.8,589 451,585.3 451.1,584.2C451.1,583.8 454.3,581.9 458.3,580C465.1,576.7 465.5,576.3 465.8,572.9C466.1,568.8 464.4,566.7 460.6,566.7C459.3,566.7 453.7,568.7 448.3,571C425.7,580.7 396.5,589 385,589C380.5,589 379.9,588.7 375.6,583.9C368.8,576.3 355.9,555.1 345.2,534C340,523.8 335.1,514.7 334.3,513.7C331.7,510.9 329,511.7 318,518.6C304.3,527.2 262.4,547.7 261.1,546.5C260.2,545.5 269,535.3 279.7,524.9C305.2,500.2 329.2,482.6 336.5,483.2C339,483.5 340.6,484.9 345.7,491.8Z" style="fill:rgb(13,220,44);"/>
        </g>
        <g transform="matrix(10,0,0,-10,0,10240)">
            <path d="M476.4,476.7C500.8,500.1 536.1,515.4 570.7,517.6L580.7,518.3L575.8,526.9C571.1,534.9 564,545.9 560.5,550.5C559.1,552.3 557.8,552.5 548.7,552.4C527.3,552.1 500.5,543.2 480.5,529.7C472.3,524.1 461.5,513 455.2,503.6C448.4,493.5 448.1,491.9 451.4,487.2C454.7,482.6 466.4,468.1 466.9,468C467.1,468 471.4,471.9 476.4,476.7Z" style="fill:rgb(13,220,44);"/>
        </g>
        <g transform="matrix(10,0,0,-10,0,10240)">
            <path d="M623.4,484.8C627.6,489.1 632.4,493 635.4,494.5C640.9,497.2 653.2,499 665.8,499C672.3,499 673,499.2 673,500.9C673,503.1 676.5,506 679.1,506C680,506 681.9,505.1 683.2,504C685.2,502.4 685.8,500.9 686.3,495.9C686.9,488.7 688.9,485.5 694.6,482.3C703,477.5 713,480.2 716.9,488.4C724.1,503.1 713,516.5 689.5,521.6C683.7,522.8 676.5,523.3 663.5,523.4C643.4,523.4 632.4,522 627.1,518.7C621.9,515.6 610.5,505.6 607.5,501.5L604.9,498.1L611.5,470.9L614,474.2C615.4,476 619.6,480.8 623.4,484.8Z" style="fill:rgb(13,220,44);"/>
        </g>
        <g transform="matrix(10,0,0,-10,0,10240)">
            <path d="M412.5,324.7C422.6,329.8 427.1,342.3 422,350.8C420,354 419.9,354 417.5,352.4C412.3,349 406.2,353.8 407.4,360.3C408.8,367.8 421.6,389.5 428.7,396.4C436.8,404.2 459.9,409.8 493.3,412.1L510.5,413.2L519.2,420.6C536.7,435.2 551.1,443.4 571.1,450.1C577.6,452.3 586.5,454.6 591,455.2L599,456.4L599,460.6C599,467.2 596.4,479.5 592.4,491.8C588,505 588.8,504.5 573,504.4C548.7,504.3 524.9,496.4 500.3,480.2C490.1,473.5 476,460.6 476,458.1C476,457.2 477.2,454.7 478.6,452.6L481.3,448.7L489.1,449.4C496.2,450 497.2,449.8 499,448C501.3,445.7 501.7,440.8 499.6,439.1C498.9,438.5 489.1,436.6 477.9,435C450.2,431 433.9,426.9 422.9,421.4C414.3,417.1 397,395.1 390.1,379.8C384.9,368.2 380,351.5 380,345.5C380,339 381.4,335.8 386.7,330.9C395.2,322.8 404.2,320.6 412.5,324.7Z" style="fill:rgb(13,220,44);"/>
        </g>
        <g transform="matrix(10,0,0,-10,0,10240)">
            <path d="M609.3,248.5C632,254.4 643.8,261.1 661.3,277.9L672.1,288.3L665.9,291.4C656.1,296.3 650.6,306.1 649.4,321.3C647.7,340.4 658.8,365.5 672.4,374C677.4,377 684.4,378 690.1,376.6L694.9,375.3L694.3,378.4C693.2,384.1 687.9,398.4 684.8,404C674.6,422.3 658.2,435.4 639,440.6C628.6,443.5 601.7,443.2 588,440.1C573.9,436.9 559.1,431.7 550.2,426.8C519.1,409.7 495.8,378.3 490,345.4C488.4,336.5 489.2,315.7 491.4,307.5C492.3,304.2 495.1,297.3 497.5,292.3C505.5,276.1 521.9,261 539.7,253.6C547.5,250.4 559.1,247.1 567.2,246C578.3,244.4 598.3,245.6 609.3,248.5Z" style="fill:rgb(13,220,44);"/>
        </g>
        <path d="M5387,9252C5366,9229 5365,9187 5385,9170C5393,9163 5428,9144 5462,9128C5600,9063 5720,8953 5849,8772C6009,8548 6147,8194 6176,7931C6182,7872 6182,7868 6164,7874C6034,7914 5775,7930 5628,7908L5540,7894L5473,7979C5380,8098 5097,8379 4965,8484C4650,8735 4339,8893 4071,8937C3975,8953 3969,8953 3950,8935C3927,8914 3923,8858 3944,8841C3952,8834 4005,8818 4062,8805C4275,8757 4449,8679 4661,8537C4829,8425 4978,8303 5131,8150C5244,8038 5390,7871 5390,7854C5390,7852 5361,7837 5325,7821C5133,7734 4942,7547 4850,7355C4735,7117 4727,6811 4830,6551C4857,6481 4923,6354 4959,6300L4990,6255L4947,6252C4848,6244 4602,6280 4449,6324C4399,6339 4389,6347 4348,6403C4323,6437 4288,6491 4270,6523L4238,6581L4279,6617C4342,6671 4364,6720 4364,6810C4364,6909 4336,6972 4264,7040C4206,7095 4166,7116 4090,7130C3945,7157 3766,7060 3701,6920C3681,6875 3676,6851 3678,6789C3682,6587 3796,6307 3959,6100C4099,5923 4243,5851 4568,5794C4624,5785 4670,5774 4670,5771C4670,5768 4637,5729 4597,5685C4380,5445 4204,5138 4164,4933C4156,4890 4146,4853 4142,4849C4131,4840 3944,4760 3934,4761C3929,4761 3898,4816 3865,4883C3765,5086 3546,5436 3483,5492C3448,5524 3390,5542 3346,5534C3139,5500 2528,4967 2468,4769C2446,4694 2487,4650 2577,4650C2652,4650 2955,4779 3166,4900C3224,4934 3273,4960 3275,4958C3277,4956 3314,4885 3357,4800C3497,4526 3647,4309 3735,4255C3780,4227 3790,4225 3869,4226C3975,4228 4080,4250 4232,4300L4350,4339L4422,4300C4642,4182 4921,4168 5195,4262C5280,4291 5288,4292 5340,4281C5370,4274 5503,4249 5635,4224C5767,4199 5880,4174 5886,4167C5892,4160 5903,4115 5909,4066C5930,3913 6009,3470 6037,3355C6058,3268 6069,3240 6092,3217C6118,3191 6126,3188 6164,3193C6211,3200 6372,3266 6512,3336C6823,3492 7108,3710 7126,3806C7134,3848 7108,3897 7072,3907C6986,3932 6813,3899 6595,3816L6455,3763L6448,3799C6444,3819 6436,3905 6430,3990C6418,4157 6390,4344 6363,4428C6344,4489 6287,4559 6225,4595C6154,4637 5934,4705 5803,4726C5779,4730 5760,4734 5760,4735C5760,4736 5785,4774 5816,4820C5846,4866 5896,4954 5927,5017C5957,5079 5985,5130 5988,5130C5990,5130 6028,5097 6070,5056C6222,4911 6400,4865 6741,4881C6965,4892 7106,4937 7205,5031C7284,5105 7315,5174 7314,5270C7314,5393 7260,5484 7159,5535C7028,5603 6855,5554 6777,5427L6746,5378L6600,5382C6488,5385 6447,5390 6418,5404C6345,5439 6158,5664 6192,5675C6199,5677 6250,5686 6305,5694C6544,5733 6723,5833 6859,6005C7012,6196 7089,6454 7077,6725C7072,6851 7052,6964 7018,7065C6918,7365 6680,7646 6413,7780C6321,7826 6331,7808 6310,7970C6250,8426 5991,8921 5694,9143C5540,9259 5428,9298 5387,9252ZM6093,7755C6320,7696 6438,7629 6613,7461L6721,7357L6659,7326C6561,7277 6506,7179 6494,7027C6477,6836 6588,6585 6724,6500C6774,6470 6844,6460 6901,6474L6949,6487L6943,6456C6932,6399 6879,6256 6848,6200C6746,6017 6582,5886 6390,5834C6286,5805 6017,5808 5880,5839C5739,5871 5591,5923 5502,5972C5191,6143 4958,6457 4900,6786C4884,6875 4892,7083 4914,7165C4923,7198 4951,7267 4975,7317C5055,7479 5219,7630 5397,7704C5475,7736 5591,7769 5672,7780C5783,7796 5983,7784 6093,7755ZM6798,7225C6878,7168 6973,6842 6951,6700C6938,6620 6903,6580 6844,6580C6784,6580 6775,6591 6818,6610C6871,6634 6890,6677 6890,6772C6890,6828 6884,6857 6866,6896C6816,7004 6715,7044 6652,6980C6635,6964 6619,6937 6615,6920C6611,6904 6604,6890 6598,6890C6579,6890 6594,7079 6617,7130C6657,7220 6741,7264 6798,7225ZM4125,6993C4226,6942 4271,6817 4220,6732C4200,6700 4199,6700 4175,6716C4123,6750 4062,6702 4074,6637C4088,6562 4216,6345 4287,6276C4368,6198 4599,6142 4933,6119L5105,6108L5192,6034C5367,5888 5511,5806 5711,5739C5776,5717 5865,5694 5910,5688L5990,5676L5990,5634C5990,5568 5964,5445 5924,5322C5880,5190 5888,5195 5730,5196C5487,5197 5249,5276 5003,5438C4901,5505 4760,5634 4760,5659C4760,5668 4772,5693 4786,5714L4813,5753L4891,5746C4962,5740 4972,5742 4990,5760C5013,5783 5017,5832 4996,5849C4989,5855 4891,5874 4779,5890C4502,5930 4339,5971 4229,6026C4143,6069 3970,6289 3901,6442C3849,6558 3800,6725 3800,6785C3800,6850 3814,6882 3867,6931C3952,7012 4042,7034 4125,6993ZM4764,5473C5008,5239 5361,5086 5707,5064L5807,5057L5758,4971C5711,4891 5640,4781 5605,4735C5591,4717 5578,4715 5487,4716C5273,4719 5005,4808 4805,4943C4723,4999 4615,5110 4552,5204C4484,5305 4481,5321 4514,5368C4547,5414 4664,5559 4669,5560C4671,5560 4714,5521 4764,5473ZM6234,5392C6276,5349 6324,5310 6354,5295C6409,5268 6532,5250 6658,5250C6723,5250 6730,5248 6730,5231C6730,5209 6765,5180 6791,5180C6800,5180 6819,5189 6832,5200C6852,5216 6858,5231 6863,5281C6869,5353 6889,5385 6946,5417C7030,5465 7130,5438 7169,5356C7241,5209 7130,5075 6895,5024C6837,5012 6765,5007 6635,5006C6434,5006 6324,5020 6271,5053C6219,5084 6105,5184 6075,5225L6049,5259L6115,5531L6140,5498C6154,5480 6196,5432 6234,5392ZM3457,5322C3536,5216 3655,5018 3758,4820C3848,4647 3869,4620 3907,4620C3922,4620 4045,4670 4182,4730C4318,4791 4434,4840 4440,4840C4469,4840 4479,4913 4453,4942C4433,4965 4413,4965 4350,4941C4317,4928 4300,4926 4300,4933C4300,4963 4333,5049 4372,5122C4408,5189 4416,5199 4425,5185C4525,5013 4631,4907 4826,4785C4979,4689 5177,4622 5377,4598L5480,4586L5458,4563C5422,4525 5294,4440 5217,4405C5056,4331 4849,4302 4700,4333C4618,4350 4510,4387 4511,4398C4511,4402 4543,4421 4583,4440C4651,4473 4655,4477 4658,4511C4661,4552 4644,4573 4606,4573C4593,4573 4537,4553 4483,4530C4257,4433 3965,4350 3850,4350C3805,4350 3799,4353 3756,4401C3688,4477 3559,4689 3452,4900C3400,5002 3351,5093 3343,5103C3317,5131 3290,5123 3180,5054C3043,4968 2624,4763 2611,4775C2602,4785 2690,4887 2797,4991C3052,5238 3292,5414 3365,5408C3390,5405 3406,5391 3457,5322ZM5821,4594C5972,4565 6097,4526 6165,4486C6220,4453 6243,4409 6265,4297C6286,4189 6310,3953 6317,3793C6324,3638 6334,3610 6384,3610C6397,3610 6499,3643 6611,3684C6849,3770 6922,3793 6952,3788C6970,3786 6962,3776 6904,3730C6811,3655 6752,3614 6647,3551C6542,3488 6244,3342 6202,3334L6172,3328L6152,3416C6141,3465 6104,3667 6070,3865C6036,4063 6003,4236 5996,4250C5980,4286 5951,4296 5790,4324C5710,4338 5603,4359 5551,4371L5458,4392L5507,4435C5533,4458 5582,4509 5615,4549C5647,4588 5678,4620 5682,4620C5686,4620 5749,4608 5821,4594Z" style="fill-rule:nonzero;"/>
        <g transform="matrix(10,0,0,-10,0,10240)">
            <path d="M580.3,293.6C589.1,296.6 597.9,306.7 602,318.4C604.4,325.4 605.8,339 604.1,339C603.5,339 603,338.1 603,337C603,334.9 600.2,328.9 597.8,325.9C595.4,322.9 589.5,320 585.9,320C573.9,320 566.5,338.3 572.9,352.5C575.7,358.8 578.4,361.8 583.5,364.1L587.4,365.9L584.7,366.9C572.1,371.7 555.3,359.3 548.9,340.3C545.5,330.3 545.6,317.5 549.1,310C552.6,302.4 557.5,297.1 563.5,294.4C569.4,291.6 573.9,291.4 580.3,293.6Z" style="fill:white;"/>
        </g>
        <path d="M5640,7417C5512,7381 5401,7250 5369,7099C5330,6918 5411,6671 5548,6549C5624,6481 5701,6450 5790,6450C5883,6450 5944,6476 6012,6545C6201,6737 6193,7092 5994,7301C5894,7405 5757,7450 5640,7417ZM5803,7304C5891,7274 5979,7173 6020,7056C6044,6986 6058,6850 6041,6850C6035,6850 6030,6859 6030,6870C6030,6891 6002,6951 5978,6981C5954,7011 5895,7040 5859,7040C5739,7040 5665,6857 5729,6715C5757,6652 5784,6622 5835,6599L5874,6581L5847,6571C5721,6523 5553,6647 5489,6837C5455,6937 5456,7065 5491,7140C5526,7216 5575,7269 5635,7296C5694,7324 5739,7326 5803,7304Z" style="fill-rule:nonzero;"/>
        <path d="M5822,6254C5807,6244 5800,6229 5800,6206C5800,6179 5812,6162 5873,6103C5987,5992 6099,5946 6255,5946C6349,5946 6448,5967 6510,5999C6549,6019 6570,6061 6554,6087C6535,6117 6507,6119 6447,6094C6235,6004 6044,6056 5893,6243C5868,6274 5854,6276 5822,6254Z" style="fill-rule:nonzero;"/>
        <g transform="matrix(10,0,0,-10,0,10240)">
            <path d="M243.8,627.6C256.1,630.1 265.2,635 274,643.9C285.2,655.1 291,668 291,681.2C291,688.2 293,691.2 297.3,690.8C299.9,690.6 301.1,689.5 303.7,685.5C307.9,679 313.8,673.7 320.9,670.3C325.9,667.8 327.6,667.5 336.5,667.5C345.3,667.5 347.2,667.8 352.2,670.2C359.8,673.7 367,680.6 370.6,687.7C373.2,693 373.5,694.4 373.5,703.8C373.5,716.9 374.1,717.5 384.8,714.4C397.5,710.7 412.6,714.5 421.9,723.8C437.4,739.3 437.2,763.2 421.6,773.7C411.8,780.4 420.8,780 268.5,780C118.3,780 124.2,780.2 114.4,774.5C108.4,771 102.4,764.5 99.3,758.2C96.8,753.1 96.5,751.5 96.5,742.5C96.6,734.6 97,731.4 98.8,727C101.8,719.5 107.4,712.4 114.7,706.8C123.4,700.2 130.4,697.8 142.1,697.2C150.7,696.8 152.3,697 158,699.4C163.5,701.6 164.8,701.7 166.9,700.7C169.4,699.5 169.5,699.1 170.1,688C170.8,675.2 171.8,670.5 176.1,661.1C181.9,648.3 191.3,639.1 205.3,632.5C218.4,626.2 230,624.8 243.8,627.6Z" style="fill:none;stroke:rgb(0,255,246);stroke-width:1px;"/>
        </g>
        <path d="M2208,4099C2029,4073 1856,3977 1742,3840C1651,3730 1581,3557 1580,3444L1580,3403L1468,3403C1270,3404 1140,3351 1005,3216C888,3098 830,2967 830,2820C830,2579 989,2382 1231,2325C1286,2312 1480,2310 2681,2310C3583,2310 4086,2314 4121,2320C4256,2346 4362,2425 4421,2545C4451,2605 4455,2625 4458,2711C4462,2790 4458,2822 4441,2878C4376,3094 4174,3240 3939,3240L3863,3240L3857,3296C3839,3469 3667,3645 3471,3690C3398,3707 3260,3698 3191,3672C3161,3660 3112,3634 3082,3615C3053,3595 3027,3580 3025,3582C3023,3584 3012,3610 3000,3640C2903,3887 2688,4058 2423,4099C2342,4111 2291,4111 2208,4099ZM2438,3964C2561,3939 2652,3890 2740,3801C2852,3689 2910,3560 2910,3428C2910,3358 2930,3328 2973,3332C2999,3334 3011,3345 3037,3385C3079,3450 3138,3503 3209,3537C3259,3562 3276,3565 3365,3565C3453,3565 3472,3562 3522,3538C3598,3503 3670,3434 3706,3363C3732,3310 3735,3296 3735,3202C3735,3071 3741,3065 3848,3096C3975,3133 4126,3095 4219,3002C4374,2847 4372,2608 4216,2503C4118,2436 4208,2440 2685,2440C1183,2440 1242,2438 1144,2495C1084,2530 1024,2595 993,2658C968,2709 965,2725 965,2815C966,2894 970,2926 988,2970C1018,3045 1074,3116 1147,3172C1234,3238 1304,3262 1421,3268C1507,3272 1523,3270 1580,3246C1635,3224 1648,3223 1669,3233C1694,3245 1695,3249 1701,3360C1708,3488 1718,3535 1761,3629C1819,3757 1913,3849 2053,3915C2184,3978 2300,3992 2438,3964Z" style="fill-rule:nonzero;"/>
        <g transform="matrix(10,0,0,-10,0,10240)">
            <path d="M818.3,629.6C830.3,632.3 839.2,637.1 847.9,645.9C860.2,658 866,671.4 866,687.2C866,693.7 866.3,695.3 868,697C870.9,699.9 872.9,699.5 879.5,694.5C888.6,687.7 898.5,685.1 908.5,686.9C922.1,689.4 932.6,697.4 938.7,709.8C942.4,717.3 942.5,717.6 942.5,728.9C942.5,740.3 942.4,740.6 938.6,748.5C933.1,759.9 921.7,771.1 910,776.8C893,785.1 906.3,784.4 752.2,784.8L614.9,785L611.9,782.1C601.8,772 619.7,749.3 639.2,747.3C642.4,747 647.2,747.4 651.3,748.4C662.6,751 663.9,750.5 665.1,743.2C667.4,728.4 678.1,716.3 694.5,710C703,706.7 720,706.6 727.8,709.8C734.1,712.4 736.3,712.5 738.5,710.4C739.8,709.1 740,707.1 739.4,697.2C738.7,683 740.2,674.4 745.6,663.2C750.9,652.2 762.5,640.8 774.3,635.1C788.5,628.2 803.5,626.3 818.3,629.6Z" style="fill:none;stroke:rgb(0,255,246);stroke-width:1px;"/>
        </g>
        <path d="M7965,4089C7815,4075 7658,4013 7548,3926C7378,3791 7261,3560 7260,3359L7260,3294L7147,3298C7016,3303 6946,3289 6831,3235C6728,3186 6614,3072 6564,2967L6528,2891L6462,2897C6324,2908 6197,2858 6087,2749C5997,2659 5965,2592 5965,2490C5965,2426 5969,2408 5993,2368C6022,2317 6056,2290 6109,2272C6134,2263 6500,2260 7495,2260C8685,2260 8858,2262 8931,2276C9280,2341 9541,2611 9557,2920C9566,3090 9521,3216 9406,3338C9259,3493 9049,3548 8856,3481C8823,3469 8794,3460 8790,3460C8787,3460 8778,3490 8770,3527C8752,3620 8674,3770 8604,3848C8449,4021 8208,4112 7965,4089ZM8183,3944C8303,3917 8392,3869 8479,3781C8602,3660 8660,3526 8660,3368C8660,3303 8663,3287 8680,3270C8709,3241 8729,3245 8795,3295C8886,3363 8985,3389 9085,3371C9221,3346 9326,3266 9387,3142C9424,3067 9425,3064 9425,2951C9425,2837 9424,2834 9386,2755C9331,2641 9217,2529 9100,2472C8930,2389 9063,2396 7522,2392L6149,2390L6119,2419C6018,2520 6197,2747 6392,2767C6424,2770 6472,2766 6513,2756C6626,2730 6639,2735 6651,2808C6674,2956 6781,3077 6945,3140C7030,3173 7200,3174 7278,3142C7341,3116 7363,3115 7385,3136C7398,3149 7400,3169 7394,3268C7387,3410 7402,3496 7456,3608C7509,3718 7625,3832 7743,3889C7885,3958 8035,3977 8183,3944Z" style="fill-rule:nonzero;"/>
    </g>
</svg>
