<?xml version="1.0" encoding="UTF-8" standalone="no"?>
<!DOCTYPE svg PUBLIC "-//W3C//DTD SVG 1.1//EN" "http://www.w3.org/Graphics/SVG/1.1/DTD/svg11.dtd">
<svg width="100%" height="100%" viewBox="0 0 512 512" version="1.1" xmlns="http://www.w3.org/2000/svg" xmlns:xlink="http://www.w3.org/1999/xlink" xml:space="preserve" xmlns:serif="http://www.serif.com/" style="fill-rule:evenodd;clip-rule:evenodd;stroke-linejoin:round;stroke-miterlimit:2;">
    <g transform="matrix(0.924452,0,0,0.924452,17.9766,12.0781)">
        <g transform="matrix(1,0,0,1,-271.914,-158.126)">
            <path d="M750.4,508.6C751.3,515.8 749.3,528.1 746,536.4C742.5,544.9 742.4,543.8 745,530C746.2,524.2 747.4,515.3 747.7,510.2C748.3,500.4 749.3,499.9 750.4,508.6Z" style="fill:rgb(13,220,44);"/>
        </g>
        <g transform="matrix(1,0,0,1,-271.914,-158.126)">
            <path d="M685.2,492.7C684.1,498.1 682.9,505 682.5,508C680.7,523.5 665.6,585.7 661.1,596.3C658.1,603.2 655.4,602.3 658.1,595.3C660.5,589.2 663.2,578.2 664.6,568.6C666.3,556.9 672.3,530.3 674.9,522.7C675.9,519.8 677.1,514.9 677.5,511.9C678.9,501.4 681,492.8 683.7,487.4C685.1,484.4 686.5,482.2 686.7,482.4C687,482.6 686.3,487.3 685.2,492.7Z" style="fill:rgb(13,220,44);"/>
        </g>
        <g transform="matrix(1,0,0,1,-271.914,-158.126)">
            <path d="M714.2,483.6C726.8,487.6 735,491.5 735,493.7C735,499.8 732.6,521.8 730.5,535.4C729.1,544.2 728,553.3 728,555.5C728,560.4 726.4,565.7 724.1,568.4C718,575.6 682.6,596 680.3,593.6C680,593.3 680.7,589.4 681.9,584.9C683.1,580.4 684.8,572.7 685.6,567.6C686.4,562.6 688.2,554 689.7,548.5C691.1,543 693,534 694,528.5C702.6,479.2 702.3,481 704.1,481C705.1,481 709.6,482.2 714.2,483.6Z" style="fill:rgb(13,220,44);"/>
        </g>
        <g transform="matrix(1,0,0,1,-271.914,-158.126)">
            <path d="M655.6,531.6C653.7,539.3 651.2,550.4 650,556.5C648.8,562.5 646.6,572.7 645,579C643.5,585.3 641.6,593.8 640.9,597.8C640.2,601.9 639.2,605.3 638.6,605.5C636.3,606.1 613.4,609 611.1,609C609.2,609 608.9,608.6 609.4,606.7C609.7,605.5 611.2,598.9 612.5,592C613.9,585.1 616.6,574.7 618.5,568.9C620.4,563 622,557.2 622,555.9C622.1,551.8 625.2,547.5 637,535C647.6,523.8 658.1,515.1 658.8,517C659,517.4 657.5,524 655.6,531.6Z" style="fill:rgb(13,220,44);"/>
        </g>
        <g transform="matrix(1,0,0,1,-271.914,-158.126)">
            <path d="M597.4,577.7C596,583.1 594.2,590.2 593.5,593.5C592.8,596.8 591.6,601.4 590.9,603.6C589.7,607.5 589.3,607.8 585.2,608.4C577.8,609.4 566.2,609.1 552.6,607.5C541.1,606.1 532,604.4 532,603.6C532,603.5 532.6,601.4 533.4,598.9C534.2,596.5 535.8,591.1 537,587C539.3,579.5 542.9,571.7 543.9,572.3C551.7,576.8 554.7,577.5 565,577.4C576.8,577.4 585.2,575 594.5,569.2C597.3,567.5 599.6,566.5 599.8,567C600,567.5 598.9,572.3 597.4,577.7Z" style="fill:rgb(13,220,44);"/>
        </g>
        <g transform="matrix(1,0,0,1,-271.914,-158.126)">
            <path d="M681.4,398.1C689.9,401.2 696,410.3 696,419.7C696,423.7 692.5,434.4 690.1,438C689.1,439.4 687.5,442.7 686.5,445.5C680.1,463 672.4,473.4 636.4,513.1C618.5,532.8 607.8,542.7 595.6,550.8C583.8,558.8 577.3,561.5 567.9,562.5C562.4,563.1 560.5,562.9 556.3,561C546,556.6 541,547.7 541,534C541.1,522.6 546.8,507 554.8,497C559.8,490.7 624.5,426.2 636.1,416C657.4,397.2 667.9,393 681.4,398.1Z" style="fill:rgb(13,220,44);"/>
        </g>
        <g transform="matrix(1,0,0,1,-271.914,-158.126)">
            <path d="M566,432.5C572.9,433.8 581,435.1 584,435.5C587,435.9 589.8,436.4 590.3,436.7C591.8,437.6 588.3,441.9 573.6,457C538.7,492.9 533.7,499.7 528.5,519.5C525,532.6 524.9,540.7 528.3,553.3L530.9,563.1L528,567.8C526.5,570.4 523.8,575.9 522.2,580C520.5,584.1 518,589.8 516.6,592.6C515.2,595.5 514,598.5 514,599.4C514,600.3 513.6,601 513.2,601C512.1,601 501.9,598.3 493.7,595.9L486.9,593.9L489.5,591.8C492.6,589.4 494.9,584.9 498,575.5C499.4,571.4 501.5,567.3 503.2,565.7C504.7,564.1 506,562.4 506,561.9C506,560.9 512,549.8 513,549C514.1,548.2 519.5,536 522.3,528.5C523.7,524.6 526.4,518.1 528.3,514C535.1,499.2 546.1,456.9 548.5,436.5C549.4,429.3 549.7,428.7 551.9,429.5C552.8,429.9 559.1,431.3 566,432.5Z" style="fill:rgb(13,220,44);"/>
        </g>
        <g transform="matrix(1,0,0,1,-271.914,-158.126)">
            <path d="M519.3,422.8L535.2,426.4L534.5,432C533.1,442.8 523.3,484.7 519.9,494C518.8,497 516.8,502.6 515.5,506.3C514.1,510.1 512.2,514.6 511.1,516.3C510.1,518.1 506.6,524.7 503.4,531C500.3,537.3 494.5,547 490.7,552.5C486.5,558.4 482.9,564.8 481.9,568.2C480.9,571.3 478.6,576.7 476.9,580.2C475.1,583.7 473.7,587.1 473.9,587.8C474.1,588.8 473.5,589 471.8,588.5C470.5,588.1 469.3,587.6 469.1,587.4C468.9,587.2 469.2,575 469.9,560.2L471.1,533.5L468,530.7C463.9,527 459.3,527 455.7,530.8L453,533.6L452.8,556.7L452.5,579.7L448.5,577C446.3,575.5 440.9,572.1 436.5,569.5C432.1,566.8 428.1,564.1 427.5,563.5C427,562.9 424,560.5 420.8,558.1C413.8,552.9 400.5,538.4 394.9,530C390.6,523.5 381.6,505.4 380.5,500.9L379.9,498.5L393.2,498.5C403.6,498.4 408.6,497.9 416,496.1C426.5,493.5 444.4,485.5 453.6,479.3C461.3,474 475.3,459.4 481.3,450.3C486.5,442.5 493.1,429.1 495.1,422.2C496.6,417.2 494.8,417.2 519.3,422.8Z" style="fill:rgb(13,220,44);"/>
        </g>
        <g transform="matrix(1,0,0,1,-271.914,-158.126)">
            <path d="M388,289.2C388,301 391.5,306.2 397.8,303.9C400.9,302.7 403,297.2 403,290.1C403,286.8 403.4,283.9 403.8,283.6C404.3,283.3 409.4,284.6 415.3,286.4C440.2,294.2 463,313.3 474.4,335.9C480.6,348.1 486,370.2 486,383.4C486,410.1 472.8,442.3 455.4,458C434.3,477.1 405.9,486.6 380.9,483.1C353.4,479.1 337.1,470.4 319.3,450.2C303.2,431.8 296.7,417.5 294,394.2C293,386.1 293.1,381.9 294.4,370.4C296.4,353.7 297.8,348.3 303.5,337C312.8,318.6 329.5,301.3 346.3,292.8C355.2,288.4 378.5,281.4 385.3,281.1L388,281L388,289.2ZM329.6,417.9C322,418.6 320.3,419.9 321.4,424.4C321.7,425.8 323,428 324.1,429.1C325.9,430.9 326.9,431 334.8,430.4C339.6,430.1 344.5,429.1 345.8,428.4C348.9,426.4 348.9,420.7 345.8,418.6C343.5,417 341.8,416.9 329.6,417.9ZM384.2,332.5C371.7,338.3 364.3,346.1 360.8,357.3C358.2,365.5 358.8,372.9 362.8,380.9C369.2,393.7 376.8,400 389.1,402.6C402.6,405.4 414.5,401.7 423.6,391.8C435,379.3 437.1,361.3 428.5,348C418.9,333 398.5,325.8 384.2,332.5Z" style="fill:rgb(13,220,44);"/>
        </g>
        <g transform="matrix(1,0,0,1,-271.914,-158.126)">
            <path d="M388,289.2C388,301 391.5,306.2 397.8,303.9C400.9,302.7 403,297.2 403,290.1C403,286.8 403.4,283.9 403.8,283.6C404.3,283.3 409.4,284.6 415.3,286.4C440.2,294.2 463,313.3 474.4,335.9C480.6,348.1 486,370.2 486,383.4C486,410.1 472.8,442.3 455.4,458C434.3,477.1 405.9,486.6 380.9,483.1C353.4,479.1 337.1,470.4 319.3,450.2C303.2,431.8 296.7,417.5 294,394.2C293,386.1 293.1,381.9 294.4,370.4C296.4,353.7 297.8,348.3 303.5,337C312.8,318.6 329.5,301.3 346.3,292.8C355.2,288.4 378.5,281.4 385.3,281.1L388,281L388,289.2ZM329.6,417.9C322,418.6 320.3,419.9 321.4,424.4C321.7,425.8 323,428 324.1,429.1C325.9,430.9 326.9,431 334.8,430.4C339.6,430.1 344.5,429.1 345.8,428.4C348.9,426.4 348.9,420.7 345.8,418.6C343.5,417 341.8,416.9 329.6,417.9ZM384.2,332.5C371.7,338.3 364.3,346.1 360.8,357.3C358.2,365.5 358.8,372.9 362.8,380.9C369.2,393.7 376.8,400 389.1,402.6C402.6,405.4 414.5,401.7 423.6,391.8C435,379.3 437.1,361.3 428.5,348C418.9,333 398.5,325.8 384.2,332.5Z" style="fill:rgb(13,220,44);"/>
        </g>
        <g transform="matrix(-0.914077,0.243336,-0.249861,-0.938588,554.527,476.738)">
            <path d="M462.594,312.886C478.959,331.027 488.948,355.174 488.948,381.668C488.948,437.954 443.862,483.652 388.329,483.652C349.24,483.652 315.326,461.01 298.67,427.97C317.074,448.37 343.541,461.173 372.934,461.173C428.467,461.173 473.553,415.475 473.553,359.189C473.553,342.522 469.6,326.784 462.594,312.886Z" style="fill:white;"/>
        </g>
        <g transform="matrix(0.813758,0,0,0.884009,-171.88,-77.6666)">
            <path d="M462.594,312.886C478.959,331.027 488.948,355.174 488.948,381.668C488.948,437.954 443.862,483.652 388.329,483.652C349.24,483.652 315.326,461.01 298.67,427.97C317.074,448.37 343.541,461.173 372.934,461.173C428.467,461.173 473.553,415.475 473.553,359.189C473.553,342.522 469.6,326.784 462.594,312.886Z" style="fill:rgb(6,182,52);"/>
        </g>
        <g transform="matrix(1,0,0,1,-273.914,-155.126)">
            <path d="M751.233,530.638C752.476,527.989 755.411,526.428 758.404,527.038C761.914,527.753 764.183,531.183 763.468,534.693C763.338,535.33 762.392,537.53 760.243,540.21C756.264,545.171 747.305,555.127 744.966,558.096C742.163,564.473 734.383,580.707 674.036,596.245C534.929,632.062 448.435,583.436 407.125,543.891C388.529,526.089 378.979,509.733 377.246,502.951C376.359,499.48 378.457,495.943 381.927,495.056C385.398,494.169 388.936,496.267 389.822,499.737C391.313,505.57 400.108,519.205 416.101,534.514C455.497,572.228 538.135,617.833 670.799,583.675C724.542,569.837 731.079,557.409 733.339,552.287C733.515,551.889 734.412,550.452 736.023,548.537C739.815,544.031 748.877,533.96 751.233,530.638Z" style="fill:rgb(6,182,52);"/>
        </g>
        <g transform="matrix(-0.999704,0.024327,-0.024327,-0.999704,977.809,792.29)">
            <path d="M543.321,552.089C545.156,554.96 544.454,558.805 541.661,560.832C538.761,562.936 534.7,562.29 532.596,559.39C531.039,557.245 529.532,553.189 530.564,546.532C532.135,536.404 540.163,517.16 565.429,484.823C589.803,453.629 593.35,446.468 626.205,421.339C633.192,415.995 644.321,405.348 656.922,399.072C671.455,391.835 687.712,390.022 702.802,404.355C705.399,406.822 705.505,410.933 703.038,413.531C700.571,416.128 696.46,416.234 693.863,413.767C683.634,404.051 672.56,405.786 662.709,410.692C650.927,416.559 640.623,426.653 634.091,431.649C602.467,455.837 599.118,462.79 575.658,492.815C555.797,518.234 547.195,534.625 544.277,544.663C543.284,548.076 543.312,551.597 543.321,552.089Z" style="fill:rgb(6,182,52);"/>
        </g>
        <g transform="matrix(1,0,0,1,-271.914,-164.126)">
            <path d="M548.765,560.423C550.868,563.322 550.223,567.384 547.323,569.487C544.424,571.591 540.362,570.945 538.258,568.046C537.006,566.32 534.715,561.478 533.903,554.067C532.32,539.63 535.738,513.667 566.014,484.17C594.748,456.177 596.187,450.874 626.126,423.117C632.711,417.012 643.834,406.396 656.591,400.399C670.962,393.644 687.214,392.384 702.264,406.678C704.861,409.145 704.967,413.257 702.5,415.854C700.033,418.451 695.921,418.557 693.324,416.09C683.055,406.336 671.92,407.537 662.113,412.147C650.692,417.516 640.847,427.17 634.951,432.636C605.124,460.289 603.698,465.58 575.073,493.468C549.257,518.619 545.457,540.342 546.806,552.653C547.251,556.708 548.079,559.478 548.765,560.423Z" style="fill:white;"/>
        </g>
        <g transform="matrix(1.08172,0,0,1.08172,-19.4457,-13.0651)">
            <path d="M345.332,226.119C349.028,226.558 352.436,231.545 353.176,231.823C353.915,232.008 339.95,245.016 334.311,249.731L324.974,257.773L321.831,256.479C320.074,255.74 316.192,254.908 313.233,254.63C310.275,254.353 306.392,253.891 304.636,253.613L299.4,253.059L306.881,245.003C309.007,243.154 317.957,234.086 319.898,232.791C322.487,231.035 326.385,227.251 331.557,225.891C337.044,224.449 334.054,224.779 345.332,226.119Z" style="fill:rgb(6,182,52);"/>
        </g>
        <g transform="matrix(0.1,0,0,-0.1,-271.914,865.874)">
            <path d="M4075,8668C4030,8642 3809,8446 3721,8354C3579,8206 3443,7987 3375,7800C3336,7691 3301,7537 3294,7444C3288,7367 3286,7363 3254,7341C3199,7303 3037,7129 2988,7055C2763,6715 2727,6279 2895,5925C2938,5834 3028,5700 3104,5615C3209,5496 3403,5368 3558,5316L3625,5293L3643,5225C3683,5072 3762,4926 3889,4767L3960,4679L3951,4502C3945,4405 3930,4246 3916,4150C3902,4054 3886,3928 3880,3870C3861,3686 3866,3698 3815,3705C3757,3714 3672,3689 3637,3652C3603,3617 3588,3568 3596,3518L3603,3480L3499,3480C3430,3479 3387,3475 3370,3465C3348,3453 3393,3452 3703,3451C3901,3450 4066,3447 4071,3444C4076,3441 4194,3444 4333,3451C4532,3461 4603,3460 4665,3451C4797,3431 5090,3426 5312,3440C5458,3450 5739,3453 6305,3452C6740,3451 7113,3454 7135,3457L7175,3464L7135,3471C7113,3475 7070,3479 7040,3479C6985,3480 6984,3480 6982,3511C6977,3578 6907,3660 6822,3700C6766,3727 6634,3737 6550,3722C6520,3716 6493,3714 6491,3716C6488,3719 6497,3776 6546,4030C6550,4053 6564,4060 6712,4105C6912,4166 7028,4217 7161,4305C7390,4455 7547,4655 7616,4885C7652,5005 7654,5147 7622,5230C7561,5385 7367,5505 7060,5576C6999,5591 6950,5605 6950,5610C6950,5620 7002,5735 7053,5839C7089,5913 7094,5932 7098,6010C7103,6118 7086,6184 7030,6267C6981,6341 6933,6374 6833,6401C6697,6438 6568,6417 6481,6344L6453,6321L6410,6365C6342,6434 6286,6454 6160,6455C6061,6455 6051,6453 5990,6423C5929,6392 5850,6325 5657,6143L5589,6078L5407,6118C5307,6140 5172,6169 5107,6181L4989,6205L4997,6250C5002,6275 5005,6360 5005,6440C5004,6668 4957,6825 4825,7040C4679,7276 4390,7477 4117,7530L4049,7544L4055,7584C4066,7650 4108,7768 4155,7866C4251,8064 4407,8255 4583,8390C4679,8464 4685,8466 4740,8450C4843,8420 4925,8523 4876,8619C4854,8661 4818,8680 4760,8680C4716,8680 4705,8675 4667,8642C4644,8621 4591,8582 4550,8554C4246,8355 4006,8012 3920,7656L3894,7546L3834,7549C3748,7552 3590,7516 3466,7465C3448,7457 3447,7460 3453,7507C3464,7604 3521,7773 3577,7880C3692,8098 3811,8250 3970,8382C4060,8457 4067,8461 4103,8456C4148,8449 4201,8469 4224,8501C4233,8514 4240,8544 4240,8568C4240,8605 4234,8618 4206,8646C4179,8673 4164,8680 4134,8680C4112,8680 4086,8674 4075,8668ZM3880,7348C3880,7230 3915,7178 3978,7201C4009,7213 4030,7268 4030,7339C4030,7372 4034,7401 4038,7404C4043,7407 4094,7394 4153,7376C4402,7298 4630,7107 4744,6881C4806,6759 4860,6538 4860,6406C4860,6139 4728,5817 4554,5660C4343,5469 4059,5374 3809,5409C3534,5449 3371,5536 3193,5738C3032,5922 2967,6065 2940,6298C2930,6379 2931,6421 2944,6536C2964,6703 2978,6757 3035,6870C3128,7054 3295,7227 3463,7312C3552,7356 3785,7426 3853,7429L3880,7430L3880,7348ZM6814,6259C6899,6228 6960,6137 6960,6043C6960,6003 6925,5896 6901,5860C6891,5846 6875,5813 6865,5785C6801,5610 6724,5506 6364,5109C6185,4912 6078,4813 5956,4732C5838,4652 5773,4625 5679,4615C5624,4609 5605,4611 5563,4630C5460,4674 5410,4763 5410,4900C5411,5014 5468,5170 5548,5270C5598,5333 6245,5978 6361,6080C6574,6268 6679,6310 6814,6259ZM6260.22,6343.41C6300.2,6338.66 6337.07,6284.72 6345.07,6281.72C6353.07,6279.72 6202,6139 6141,6088L6040,6001L6006,6015C5987,6023 5945,6032 5913,6035C5881,6038 5839,6043 5820,6046L5763.37,6052L5844.28,6139.14C5867.28,6159.14 5964.1,6257.24 5985.1,6271.24C6013.1,6290.24 6055.27,6331.17 6111.22,6345.88C6170.57,6361.48 6138.23,6357.91 6260.22,6343.41ZM5193,6012L5352,5976L5345,5920C5331,5812 5233,5393 5199,5300C5188,5270 5168,5214 5155,5177C5141,5139 5122,5094 5111,5077C5101,5059 5066,4993 5034,4930C5003,4867 4945,4770 4907,4715C4865,4656 4829,4592 4819,4558C4809,4527 4786,4473 4769,4438C4751,4403 4737,4369 4739,4362C4741,4352 4735,4350 4718,4355C4705,4359 4693,4364 4691,4366C4689,4368 4692,4490 4699,4638L4711,4905L4680,4933C4639,4970 4593,4970 4557,4932L4530,4904L4528,4673L4525,4443L4485,4470C4463,4485 4409,4519 4365,4545C4321,4572 4281,4599 4275,4605C4270,4611 4240,4635 4208,4659C4138,4711 4005,4856 3949,4940C3906,5005 3816,5186 3805,5231L3799,5255L3932,5255C4036,5256 4086,5261 4160,5279C4265,5305 4444,5385 4536,5447C4613,5500 4753,5646 4813,5737C4865,5815 4931,5949 4951,6018C4966,6068 4948,6068 5193,6012ZM5660,5915C5729,5902 5810,5889 5840,5885C5870,5881 5898,5876 5903,5873C5918,5864 5883,5821 5736,5670C5387,5311 5337,5243 5285,5045C5250,4914 5249,4833 5283,4707L5309,4609L5280,4562C5265,4536 5238,4481 5222,4440C5205,4399 5180,4342 5166,4314C5152,4285 5140,4255 5140,4246C5140,4237 5136,4230 5132,4230C5121,4230 5019,4257 4937,4281L4869,4301L4895,4322C4926,4346 4949,4391 4980,4485C4994,4526 5015,4567 5032,4583C5047,4599 5060,4616 5060,4621C5060,4631 5120,4742 5130,4750C5141,4758 5195,4880 5223,4955C5237,4994 5264,5059 5283,5100C5351,5248 5461,5671 5485,5875C5494,5947 5497,5953 5519,5945C5528,5941 5591,5927 5660,5915ZM7142,5404C7268,5364 7350,5325 7350,5303C7350,5242 7326,5022 7305,4886C7291,4798 7280,4707 7280,4685C7280,4636 7264,4583 7241,4556C7180,4484 6826,4280 6803,4304C6800,4307 6807,4346 6819,4391C6831,4436 6848,4513 6856,4564C6864,4614 6882,4700 6897,4755C6911,4810 6930,4900 6940,4955C7026,5448 7023,5430 7041,5430C7051,5430 7096,5418 7142,5404ZM6852,5313C6841,5259 6829,5190 6825,5160C6807,5005 6656,4383 6611,4277C6581,4208 6554,4217 6581,4287C6605,4348 6632,4458 6646,4554C6663,4671 6723,4937 6749,5013C6759,5042 6771,5091 6775,5121C6789,5226 6810,5312 6837,5366C6851,5396 6865,5418 6867,5416C6870,5414 6863,5367 6852,5313ZM7504,5154C7513,5082 7493,4959 7460,4876C7425,4791 7424,4802 7450,4940C7462,4998 7474,5087 7477,5138C7483,5236 7493,5241 7504,5154ZM6556,4924C6537,4847 6512,4736 6500,4675C6488,4615 6466,4513 6450,4450C6435,4387 6416,4302 6409,4262C6402,4221 6392,4187 6386,4185C6363,4179 6134,4150 6111,4150C6092,4150 6089,4154 6094,4173C6097,4185 6112,4251 6125,4320C6139,4389 6166,4493 6185,4551C6204,4610 6220,4668 6220,4681C6221,4722 6252,4765 6370,4890C6476,5002 6581,5089 6588,5070C6590,5066 6575,5000 6556,4924ZM5974,4463C5960,4409 5942,4338 5935,4305C5928,4272 5916,4226 5909,4204C5897,4165 5893,4162 5852,4156C5778,4146 5662,4149 5526,4165C5411,4179 5320,4196 5320,4204C5320,4205 5326,4226 5334,4251C5342,4275 5358,4329 5370,4370C5393,4445 5429,4523 5439,4517C5517,4472 5547,4465 5650,4466C5768,4466 5852,4490 5945,4548C5973,4565 5996,4575 5998,4570C6000,4565 5989,4517 5974,4463ZM4317,4387C4371,4355 4441,4317 4473,4302L4532,4275L4526,4141C4523,4067 4520,3936 4520,3850L4520,3693L4466,3698C4395,3704 4319,3679 4284,3637C4262,3611 4259,3599 4263,3560C4265,3535 4270,3508 4274,3500C4280,3487 4262,3485 4133,3488C4051,3490 3983,3494 3982,3495C3980,3497 4002,3653 4030,3842C4083,4189 4103,4340 4115,4462L4122,4530L4171,4487C4198,4464 4264,4419 4317,4387ZM4741,4165C4901,4108 5270,4033 5483,4015C5572,4007 5570,4011 5546,3895C5526,3798 5500,3596 5500,3535L5500,3485L5069,3485C4644,3485 4639,3485 4644,3505C4656,3548 4690,4026 4690,4148C4690,4165 4692,4180 4694,4180C4696,4180 4717,4173 4741,4165ZM6370,4023C6370,4018 6356,3925 6340,3815C6324,3705 6310,3587 6310,3553L6310,3490L6241,3490C6172,3490 6172,3490 6165,3520C6158,3550 6102,3633 6071,3658C6062,3665 6028,3685 5995,3702C5909,3746 5787,3752 5697,3715C5681,3708 5680,3712 5686,3751C5692,3798 5715,3903 5730,3960L5739,3995L5952,3996C6094,3997 6192,4003 6245,4013C6339,4030 6370,4033 6370,4023Z" style="fill:rgb(9,2,49);fill-rule:nonzero;"/>
        </g>
        <g transform="matrix(1,0,0,1,-271.914,-158.126)">
            <path d="M390.3,338.4C392.1,339.1 394.9,341.2 396.4,343.1C398.9,346.1 399.2,347 398.8,352.3C398.4,357.7 398,358.6 394.7,361.6C391.6,364.5 390.3,365 386,365C381.9,365 380.5,364.5 377.7,362C375.8,360.4 373.7,357.7 373.1,356.1C371.3,351.8 373.3,345.4 378,340.8C382.1,336.6 384.9,336.1 390.3,338.4Z" style="fill:white;"/>
        </g>
        <g transform="matrix(0.1,0,0,-0.1,-271.914,865.874)">
            <path d="M3842,6915C3717,6857 3643,6779 3608,6667C3582,6585 3588,6511 3628,6431C3692,6303 3768,6240 3891,6214C4026,6186 4145,6223 4236,6322C4350,6447 4371,6627 4285,6760C4189,6910 3985,6982 3842,6915ZM3903,6856C3921,6849 3949,6828 3964,6809C3989,6779 3992,6770 3988,6717C3984,6663 3980,6654 3947,6624C3916,6595 3903,6590 3860,6590C3819,6590 3805,6595 3777,6620C3758,6636 3737,6663 3731,6679C3713,6722 3733,6786 3780,6832C3821,6874 3849,6879 3903,6856Z" style="fill-rule:nonzero;"/>
        </g>
        <g transform="matrix(0.1,0,0,-0.1,-271.914,865.874)">
            <path d="M3296,6061C3220,6054 3203,6041 3214,5996C3217,5982 3230,5960 3241,5949C3259,5931 3269,5930 3348,5936C3396,5939 3445,5949 3458,5956C3489,5976 3489,6033 3458,6054C3435,6070 3418,6071 3296,6061Z" style="fill-rule:nonzero;"/>
        </g>
        <g transform="matrix(0.945911,0,0,0.971277,-248.03,-144.056)">
            <path d="M462.594,312.886C478.959,331.027 488.948,355.174 488.948,381.668C488.948,437.954 443.862,483.652 388.329,483.652C349.24,483.652 315.326,461.01 298.67,427.97C317.074,448.37 343.541,461.173 372.934,461.173C428.467,461.173 473.553,415.475 473.553,359.189C473.553,342.522 469.6,326.784 462.594,312.886Z" style="fill:rgb(6,182,52);"/>
        </g>
    </g>
</svg>
