<?xml version="1.0" encoding="UTF-8" standalone="no"?>
<!DOCTYPE svg PUBLIC "-//W3C//DTD SVG 1.1//EN" "http://www.w3.org/Graphics/SVG/1.1/DTD/svg11.dtd">
<svg width="100%" height="100%" viewBox="0 0 1024 1024" version="1.1" xmlns="http://www.w3.org/2000/svg" xmlns:xlink="http://www.w3.org/1999/xlink" xml:space="preserve" xmlns:serif="http://www.serif.com/" style="fill-rule:evenodd;clip-rule:evenodd;stroke-linejoin:round;stroke-miterlimit:2;">
    <g transform="matrix(0.1,0,0,-0.1,0,1024)">
        <g transform="matrix(10,0,0,-10,0,10240)">
            <path d="M508.4,352.1C513.4,353.5 522.8,362.7 526.3,369.6C530.4,377.7 533.3,388.8 533.4,396.5C533.5,409 527.4,418.3 517.3,420.9C512.3,422.3 506.5,421.1 502.8,418L500.5,416.1L504.3,416C516.7,415.9 523.8,402.2 519.6,386.5C517.1,377 513.6,372.4 506.6,369.5C502.2,367.7 497.3,368.1 493.3,370.7C489.5,373.2 486.8,379.7 486.1,388L485.4,395.5L483.7,390.1C480.1,378.6 482.4,361.7 488.3,356.2C493.3,351.5 500.7,350 508.4,352.1Z" style="fill:white;"/>
        </g>
        <g transform="matrix(10,0,0,-10,0,10240)">
            <path d="M556.3,394.9C568,399.6 575.7,404.7 581.5,411.3C586.3,416.8 587.6,420.7 586.7,427C584.8,441.2 550.4,490.8 526,514.5L519.9,520.5L517.4,517.5C510.5,509.2 506.8,503.8 507.6,503.2C508.1,502.7 511.1,500.5 514.2,498.1C531.5,485.2 544.7,465.1 548,447C550.1,435.3 549.7,436 553.3,436C557.6,436 559,434.5 559,429.8C559,425.8 557.3,424.2 552.7,423.8C550.4,423.6 550.3,423.2 549.6,413.5C549.3,408 548.4,400.7 547.6,397.2C546.9,393.8 546.4,391 546.5,391C546.7,391 551.1,392.7 556.3,394.9Z" style="fill:rgb(13,220,44);"/>
        </g>
        <g transform="matrix(10,0,0,-10,0,10240)">
            <path d="M602.4,651C603.6,658.9 603.6,659.1 601.8,656.8C600.8,655.5 599.1,653.1 598.1,651.4C596.2,648.2 596.2,648.2 598.3,645.2C599.5,643.5 600.7,642.3 600.9,642.6C601.1,642.8 601.8,646.6 602.4,651Z" style="fill:rgb(13,220,44);"/>
        </g>
        <g transform="matrix(10,0,0,-10,0,10240)">
            <path d="M665.3,584C667.9,585.6 670.5,588.1 671,589.4C671.5,590.8 673.7,603.7 676,618.2C682.1,657.1 691.9,715.8 693.1,720.2C693.6,722.4 694.6,724.3 695.3,724.4C703.9,726.9 722.3,732.9 729,735.5C740.8,740 758,748.1 758,749.1C758,751.6 688,742.3 685.2,739.5C684.9,739.2 682.1,728.7 678.9,716.2C666.5,666.5 650.2,607.1 647.6,602.1C645.7,598.6 643.2,597 639.5,597C637,597 637.2,596.6 642.6,591.7C655.6,579.9 657.7,579.1 665.3,584Z" style="fill:rgb(13,220,44);"/>
        </g>
        <g transform="matrix(10,0,0,-10,0,10240)">
            <path d="M603,684.5C608.9,696.6 611.8,704.6 610.8,705.6C609.7,706.6 580.4,706.3 573.6,705.1C569.8,704.4 562.3,702.5 556.8,700.7L546.9,697.5L551.7,693.9C559.1,688.4 571.8,676.1 580.4,666.1L588.3,657L592.8,664.7C595.3,669 599.9,677.9 603,684.5Z" style="fill:rgb(13,220,44);"/>
        </g>
        <g transform="matrix(10,0,0,-10,0,10240)">
            <path d="M758.6,546.7C757.7,567.4 755,587.2 751,601.4C748.1,611.8 743.1,623.2 741,624.5C739.4,625.5 732.7,620.7 704.5,598.8C676.8,577.3 671.9,573.8 665.7,571C651.4,564.5 640.6,573.3 596,628C555.8,677.3 540.1,691.8 522.1,696C507.7,699.4 480.8,693.2 460.2,681.8C452.6,677.6 437.7,667.5 435.5,665C433.7,663.1 433.9,662.8 439.5,654.3C465.5,615 504.7,589.5 554.5,579.5C563.9,577.6 567,577.8 570.7,580.7L573,582.5L565.3,592C550.8,610 526.8,643.8 522.1,652.7C519.4,658 522.9,664.1 527.9,662.5C529,662.2 534.7,654.9 540.7,646.2C565.9,609.2 585.6,585.2 610.6,560.7C627.8,544 641.2,535 649,535C659,535 677.4,548.7 709.6,580.2C720.2,590.7 724.3,594 726.2,594C727.6,594 729.2,593.4 729.7,592.7C730.2,592.1 732.6,585.9 735,579C737.3,572.1 741.4,561.8 744.2,556C748.7,546.2 757.9,530 758.8,530C759.1,530 758.9,537.5 758.6,546.7Z" style="fill:rgb(13,220,44);"/>
        </g>
        <g transform="matrix(10,0,0,-10,0,10240)">
            <path d="M532.1,550.8C535.7,554 541.4,558.8 544.8,561.4C550.5,565.9 551.7,568 548.6,568C545.1,568 520.4,575.6 511,579.5C477.8,593.5 444,622.3 427.5,650.4C426,652.9 424.7,655 424.5,655C424.3,655 421.6,652.4 418.6,649.1C411.5,641.8 401.8,629.5 396.1,620.7L391.8,614L396.8,608.3C418.7,583.1 446,564.2 475.2,554.2C492,548.4 506.3,545.5 521,545.2C525.1,545 526,545.5 532.1,550.8Z" style="fill:rgb(13,220,44);"/>
        </g>
        <g transform="matrix(10,0,0,-10,0,10240)">
            <path d="M311.4,411.2C311.7,415.2 313,422.3 314.2,426.9L316.3,435.4L311.9,439.2C309.5,441.3 303.8,445.6 299.2,448.8C282.6,460.2 283,459.8 283,462.8C283,464.5 284,466.5 285.3,467.8C290.9,473.1 325.1,491.3 356,505.5C371.3,512.5 373.3,512.8 376.1,508.2C377.2,506.4 377.7,506.5 386.9,510.3C420.4,524.1 455.3,525.4 487.4,514L496.2,510.9L497.8,513.2C498.7,514.5 502.9,519.6 507.1,524.6L514.8,533.7L507.1,534.3C469.1,537.2 425.8,559.5 393.8,592.7L386.1,600.6L382.5,592.7C377.4,581.6 372.3,565.9 370.8,556.5L369.4,548.5L360.5,545.3C319.2,530.1 285.9,513.2 262.2,495.2C242,479.8 235.1,468.3 239.8,457.9C242.2,452.4 255.2,439.9 267.5,431.1C276,425 308.8,404.2 310.1,404.1C310.4,404 311,407.3 311.4,411.2Z" style="fill:rgb(13,220,44);"/>
        </g>
        <g transform="matrix(10,0,0,-10,0,10240)">
            <path d="M448,312.6C468.4,316.1 488.7,325.4 503,337.9L506.5,340.9L501.4,341C494.1,341 484.8,345.9 480.6,351.7C476,358.2 473.9,364.6 473.3,373C471.6,398.9 490.5,427.8 511.1,430.6C519.1,431.7 526.3,428.9 533.2,422L539,416.1L538.5,426.9C537.6,447 531.3,463.6 519.8,476.6C498.4,500.7 468.2,511.9 432.1,508.9C418.537,507.8 405.678,504.716 393.855,499.898C362.699,487.201 338.728,462.458 328,430.2C316.9,396.6 324.7,362.7 349.1,339.4C357.4,331.6 363.1,327.8 374.3,322.5C396.7,312.1 423.9,308.5 448,312.6Z" style="fill:rgb(13,220,44);"/>
        </g>
        <g transform="matrix(10,0,0,-10,0,10240)">
            <path d="M516.3,176.8C520,180 517.1,187 511.9,187C508.7,187 505,184 505,181.2C505,178.5 507.7,175.2 510.3,174.8C512.8,174.3 513.8,174.7 516.3,176.8Z" style="fill:rgb(13,220,44);"/>
        </g>
        <g transform="matrix(10,0,0,-10,0,10240)">
            <path d="M279.5,209.5C282.5,212.5 282.6,214.9 279.9,218.4C277.3,221.7 273.7,221.8 270.5,218.5C266.8,214.9 267.7,209.9 272.3,208C275.8,206.6 276.9,206.8 279.5,209.5Z" style="fill:rgb(13,220,44);"/>
        </g>
        <path d="M5035,8596C5002,8582 4945,8522 4937,8493C4934,8483 4929,8464 4926,8450C4922,8433 4893,8407 4839,8370C4635,8231 4440,7933 4365,7645C4341,7550 4310,7352 4310,7286L4310,7253L4178,7247C4063,7242 3957,7225 3853,7194C3836,7190 3830,7192 3830,7202C3830,7211 3806,7264 3777,7321C3609,7651 3348,7917 3044,8069C2970,8105 2940,8126 2940,8138C2940,8148 2927,8177 2911,8202C2829,8332 2636,8312 2575,8168C2545,8094 2567,8011 2633,7953C2698,7896 2798,7897 2874,7955L2918,7989L3003,7946C3218,7839 3426,7646 3572,7420C3625,7340 3725,7151 3718,7146C3716,7144 3688,7130 3654,7113C3445,7010 3267,6823 3181,6615C3163,6572 3138,6492 3126,6438L3104,6338L3003,6285C2754,6153 2511,5982 2380,5844C2289,5748 2268,5705 2262,5608C2258,5538 2260,5525 2287,5468C2396,5239 2879,4926 3459,4710L3584,4663L3611,4559C3643,4438 3681,4329 3721,4246C3737,4213 3748,4185 3746,4182C3740,4177 3525,4250 3365,4313C2917,4488 2432,4800 2071,5146C1774,5430 1452,5832 1232,6192C1167,6298 1002,6682 839,7105C751,7333 730,7370 689,7370C663,7370 630,7335 630,7308C630,7278 774,6902 885,6640C933,6527 989,6395 1010,6345C1039,6277 1060,6194 1099,6005C1208,5463 1367,5018 1598,4600C2008,3861 2576,3318 3338,2936C3899,2654 4487,2508 5121,2493C5658,2481 6115,2557 6604,2740L6734,2788L6752,2764C6776,2734 6829,2719 7045,2681C7298,2637 7391,2626 7545,2626C7725,2625 7770,2645 7770,2728C7770,2789 7633,2876 7378,2976C7297,3008 7231,3035 7233,3036C7234,3037 7309,3088 7400,3148C7771,3396 8029,3645 8285,3999C8557,4377 8757,4795 8976,5442C9027,5594 9102,5794 9143,5887C9299,6240 9590,6986 9590,7033C9590,7087 9507,7112 9478,7068C9470,7055 9444,6991 9420,6925C9321,6647 9008,5886 8954,5793C8916,5727 8763,5525 8663,5409C8481,5198 8242,4973 8010,4796C7909,4718 7711,4580 7701,4580C7698,4580 7698,4637 7701,4707C7710,4886 7702,5047 7681,5090C7668,5119 7659,5125 7628,5128C7583,5132 7547,5099 7470,4983C7421,4909 7291,4654 7275,4600C7270,4586 7259,4556 7249,4532L7230,4489L7073,4636C6896,4800 6767,4904 6676,4954C6453,5078 6327,5028 5971,4673C5875,4577 5794,4503 5791,4508C5788,4512 5747,4545 5700,4580C5582,4669 5396,4827 5331,4894L5276,4950L5406,5082C5560,5240 5663,5367 5785,5550C5889,5706 5961,5840 5985,5924C6044,6128 5870,6319 5516,6439C5472,6454 5433,6473 5429,6481C5425,6489 5403,6535 5381,6583C5269,6826 5039,7052 4806,7149C4706,7191 4566,7231 4496,7237L4437,7243L4444,7325C4458,7510 4510,7711 4581,7852C4663,8016 4801,8187 4914,8265L4967,8301L5004,8276C5074,8229 5165,8232 5236,8286C5335,8359 5318,8535 5207,8589C5157,8613 5081,8616 5035,8596ZM5163,8472C5200,8440 5171,8370 5119,8370C5087,8370 5050,8400 5050,8428C5050,8455 5077,8488 5103,8492C5128,8497 5138,8493 5163,8472ZM2795,8145C2825,8115 2826,8091 2799,8056C2773,8023 2737,8022 2705,8055C2668,8091 2677,8141 2723,8160C2758,8174 2769,8172 2795,8145ZM4480,7114C4684,7079 4887,6986 5030,6861L5065,6831L5014,6830C4941,6830 4848,6781 4806,6723C4760,6658 4739,6594 4733,6510C4716,6251 4905,5962 5111,5934C5191,5923 5263,5951 5332,6020L5390,6079L5385,5971C5376,5770 5313,5604 5198,5474C4984,5233 4682,5121 4321,5151C4185.37,5162 4056.79,5192.84 3938.55,5241.02C3626.99,5367.99 3387.28,5615.42 3280,5938C3169,6274 3247,6613 3491,6846C3574,6924 3631,6962 3743,7015C3967,7119 4239,7155 4480,7114ZM5084,6719C5134,6705 5228,6613 5263,6544C5304,6463 5333,6352 5334,6275C5335,6150 5274,6057 5173,6031C5123,6017 5065,6029 5028,6060L5005,6079L5043,6080C5167,6081 5238,6218 5196,6375C5171,6470 5136,6516 5066,6545C5022,6563 4973,6559 4933,6533C4895,6508 4868,6443 4861,6360L4854,6285L4837,6339C4801,6454 4824,6623 4883,6678C4933,6725 5007,6740 5084,6719ZM5563,6291C5680,6244 5757,6193 5815,6127C5863,6072 5876,6033 5867,5970C5848,5828 5504,5332 5260,5095L5199,5035L5174,5065C5105,5148 5068,5202 5076,5208C5081,5213 5111,5235 5142,5259C5315,5388 5447,5589 5480,5770C5501,5887 5497,5880 5533,5880C5576,5880 5590,5895 5590,5942C5590,5982 5573,5998 5527,6002C5504,6004 5503,6008 5496,6105C5493,6160 5484,6233 5476,6268C5469,6302 5464,6330 5465,6330C5467,6330 5511,6313 5563,6291ZM3114,6128C3117,6088 3130,6017 3142,5971L3163,5886L3119,5848C3095,5827 3038,5784 2992,5752C2826,5638 2830,5642 2830,5612C2830,5595 2840,5575 2853,5562C2909,5509 3251,5327 3560,5185C3713,5115 3733,5112 3761,5158C3772,5176 3777,5175 3869,5137C4204,4999 4553,4986 4874,5100L4962,5131L4978,5108C4987,5095 5029,5044 5071,4994L5148,4903L5071,4897C4691,4868 4258,4645 3938,4313L3861,4234L3825,4313C3774,4424 3723,4581 3708,4675L3694,4755L3605,4787C3192,4939 2859,5108 2622,5288C2420,5442 2351,5557 2398,5661C2422,5716 2552,5841 2675,5929C2760,5990 3088,6198 3101,6199C3104,6200 3110,6167 3114,6128ZM1300,5861C1554,5473 1989,5007 2349,4737C2763,4426 3254,4181 3719,4053L3823,4025L3865,3960C4137,3544 4526,3256 4935,3169C5057,3144 5203,3144 5298,3170C5362,3188 5373,3189 5393,3176C5405,3168 5440,3151 5470,3139C5645,3070 5844,3041 6034,3059C6197,3074 6230,3094 6230,3182C6230,3227 6143,3746 6116,3860C6101,3923 6101,3925 6123,3948C6145,3972 6381,4133 6386,4127C6399,4114 6700,2964 6700,2927C6700,2902 6315,2774 6079,2720C5787,2653 5594,2630 5284,2623C4495,2605 3708,2828 3020,3263C2409,3650 1951,4166 1619,4843C1503,5079 1385,5387 1311,5645C1288,5726 1230,5949 1230,5958C1230,5967 1235,5960 1300,5861ZM3246,5708C3308,5586 3435,5427 3526,5359C3556,5336 3579,5315 3576,5313C3571,5308 3208,5490 3083,5560C3043,5583 3010,5604 3010,5608C3011,5612 3049,5642 3096,5675C3143,5708 3186,5741 3192,5748C3210,5769 3219,5762 3246,5708ZM8783,5278C8592,4747 8367,4317 8094,3960C7921,3733 7712,3530 7468,3349C7333,3249 7080,3090 7056,3090C7047,3090 7038,3100 7035,3113C7030,3140 6966,3529 6905,3905C6881,4059 6857,4203 6854,4224L6847,4264L6921,4204C7044,4104 7180,3999 7274,3933C7352,3877 7368,3870 7409,3870C7435,3870 7465,3877 7478,3885C7538,3928 7632,4153 7665,4337C7681,4424 7683,4429 7713,4441C7761,4461 8053,4659 8158,4743C8372,4914 8604,5138 8754,5318C8792,5363 8824,5400 8825,5400C8827,5400 8808,5345 8783,5278ZM7586,4773C7577,4566 7550,4368 7510,4226C7481,4122 7431,4008 7410,3995C7394,3985 7327,4033 7045,4252C6768,4467 6719,4502 6657,4530C6514,4595 6406,4507 5960,3960C5558,3467 5401,3322 5221,3280C5077,3246 4808,3308 4602,3422C4526,3464 4377,3565 4355,3590C4337,3609 4339,3612 4395,3697C4655,4090 5047,4345 5545,4445C5639,4464 5670,4462 5707,4433L5730,4415L5653,4320C5508,4140 5268,3802 5221,3713C5194,3660 5229,3599 5279,3615C5290,3618 5347,3691 5407,3778C5659,4148 5856,4388 6106,4633C6278,4800 6412,4890 6490,4890C6590,4890 6774,4753 7096,4438C7202,4333 7243,4300 7262,4300C7276,4300 7292,4306 7297,4313C7302,4319 7326,4381 7350,4450C7373,4519 7414,4622 7442,4680C7487,4778 7579,4940 7588,4940C7591,4940 7589,4865 7586,4773ZM5321,4732C5357,4700 5414,4652 5448,4626C5505,4581 5517,4560 5486,4560C5451,4560 5204,4484 5110,4445C4778,4305 4440,4017 4275,3736C4260,3711 4247,3690 4245,3690C4243,3690 4216,3716 4186,3749C4115,3822 4018,3945 3961,4033L3918,4100L3968,4157C4187,4409 4460,4598 4752,4698C4920,4756 5063,4785 5210,4788C5251,4790 5260,4785 5321,4732ZM6653,4400C6679,4384 6705,4359 6710,4346C6715,4332 6737,4203 6760,4058C6821,3669 6919,3082 6931,3038C6936,3016 6946,2997 6953,2996C7039,2971 7223,2911 7290,2885C7408,2840 7580,2759 7580,2749C7580,2724 6880,2817 6852,2845C6849,2848 6821,2953 6789,3078C6665,3575 6502,4169 6476,4219C6457,4254 6432,4270 6395,4270C6370,4270 6372,4274 6426,4323C6556,4441 6577,4449 6653,4400ZM6024,3730C6036,3651 6036,3649 6018,3672C6008,3685 5991,3709 5981,3726C5962,3758 5962,3758 5983,3788C5995,3805 6007,3817 6009,3814C6011,3812 6018,3774 6024,3730ZM6030,3395C6089,3274 6118,3194 6108,3184C6097,3174 5804,3177 5736,3189C5698,3196 5623,3215 5568,3233L5469,3265L5517,3301C5591,3356 5718,3479 5804,3579L5883,3670L5928,3593C5953,3550 5999,3461 6030,3395Z" style="fill-rule:nonzero;"/>
        <g transform="matrix(10,0,0,-10,0,10240)">
            <path d="M410.6,357.5C413.7,359 418.6,362.6 421.5,365.5C441.4,385.4 438.7,420.7 416.5,431.6C411.8,433.8 410,434.2 404.2,433.8C379.3,432.4 360.8,403 368.8,377.2C375,357.4 393,348.9 410.6,357.5Z" style="fill:white;"/>
        </g>
        <path d="M3873,6785C3700,6737 3580,6555 3580,6340C3580,6133 3696,5942 3874,5854C3951,5816 3958,5815 4054,5815C4171,5815 4208,5830 4293,5908C4383,5992 4427,6088 4436,6220C4461,6558 4155,6865 3873,6785ZM4106,6665C4137,6650 4186,6614 4215,6585C4414,6386 4387,6033 4165,5924C4118,5902 4100,5898 4042,5902C3793,5916 3608,6210 3688,6468C3750,6666 3930,6751 4106,6665Z" style="fill-rule:nonzero;"/>
        <path d="M4009,6467C3880,6380 3876,6139 4002,6037C4077,5977 4203,5995 4251,6073C4262,6091 4278,6129 4286,6159C4300,6204 4300,6222 4290,6273C4276,6347 4252,6396 4213,6431C4146,6493 4068,6507 4009,6467Z" style="fill-rule:nonzero;"/>
        <path d="M4190,5590C4179,5579 4170,5559 4170,5546C4170,5497 4311,5407 4455,5364C4549,5335 4724,5338 4819,5369C4907,5398 4950,5431 4950,5469C4950,5525 4920,5532 4836,5495C4665,5419 4472,5444 4291,5564C4253,5589 4220,5610 4216,5610C4213,5610 4201,5601 4190,5590Z" style="fill-rule:nonzero;"/>
    </g>
</svg>
