<?xml version="1.0" encoding="UTF-8" standalone="no"?>
<!DOCTYPE svg PUBLIC "-//W3C//DTD SVG 1.1//EN" "http://www.w3.org/Graphics/SVG/1.1/DTD/svg11.dtd">
<svg width="100%" height="100%" viewBox="0 0 1024 1024" version="1.1" xmlns="http://www.w3.org/2000/svg" xmlns:xlink="http://www.w3.org/1999/xlink" xml:space="preserve" xmlns:serif="http://www.serif.com/" style="fill-rule:evenodd;clip-rule:evenodd;stroke-linejoin:round;stroke-miterlimit:2;">
    <g transform="matrix(0.1,0,0,-0.1,0,1024)">
        <g transform="matrix(10,0,0,-10,0,10240)">
            <path d="M641.2,525.5C644.3,526.5 648.4,528.5 650.3,530.1C662.1,539.8 661.4,556.2 646.5,618.4C642.9,633.3 640,646.2 640,647.1C640,648.3 642.4,649.8 647.8,652C672.6,662.4 686,672.1 686,680C686,685.8 681.9,686.3 664.7,682.6C648.8,679.1 627.1,671.2 622.8,667.3C619.7,664.5 620.5,654.1 628.5,593.5C631.7,569.3 632,562.1 629.7,558.7C626.8,554.2 622.7,553.6 597.8,554.3L575,554.9L580.4,548.6C583.4,545.1 588.2,538.3 591.1,533.6C594.4,528.2 597.1,524.8 598.4,524.5C607.5,522.5 633.3,523.1 641.2,525.5Z" style="fill:rgb(13,220,44);"/>
        </g>
        <g transform="matrix(10,0,0,-10,0,10240)">
            <path d="M453,505.7C477.2,519.2 502.2,525.7 533.5,526.7C548.1,527.2 552.3,526.9 563.4,525C570.5,523.8 577.4,522.4 578.6,521.9C579.9,521.5 581,521.3 581,521.6C581,521.9 578.5,526 575.5,530.7C570,539.1 553,557 550.5,557C549.8,557 546.4,554.1 543.1,550.6C532.5,539.6 518.4,535 495.4,535C481.7,535 478.3,535.6 476.4,538.6C475,540.6 475,541.2 476.5,543.9L478.1,547L489.9,547C522.2,547 537.9,555.8 540.6,575.3C541.5,581.7 538.6,597.2 526.9,647.3C525.2,654.2 524.9,657.6 525.6,658.7C526.1,659.6 530.2,662.3 534.5,664.8C544.3,670.3 553.2,677 556.4,681.3C562.6,689.6 563.2,694.5 558.5,697.6C556.3,699 554.9,699.1 547.7,698.2C526,695.3 500.9,682.2 498.4,672.5C497.9,670.6 498.6,663.9 500.4,653.5C502,644.7 504.7,628.7 506.6,618C510.3,596.6 510.9,584.7 508.5,580C505.9,575 502.7,574.1 481.4,572.5C448.7,570 444.9,568.4 437.2,553.3C434.5,547.9 431.9,542.1 431.6,540.5C430.5,535.5 435.3,501.5 437.6,497.8C437.9,497.3 439.4,497.7 440.8,498.7C442.3,499.6 447.8,502.8 453,505.7Z" style="fill:rgb(13,220,44);"/>
        </g>
        <g transform="matrix(10,0,0,-10,0,10240)">
            <path d="M461.2,452.4C477.9,462.9 503.1,471.3 526.5,474.1C537.6,475.4 563.9,475.3 573.5,474C577.8,473.3 585.6,471.7 590.7,470.4C595.8,469.1 600.2,468 600.4,468C602,468 594.9,491.1 590.9,499.1C588.5,503.9 587.4,505 583.1,506.9C569.7,512.6 546.8,515.4 525.3,513.8C498.5,511.9 472.5,503 450.3,488.3C444,484.2 442,482.3 442,480.6C442,474.9 453.1,449 455.6,449C455.8,449 458.3,450.5 461.2,452.4Z" style="fill:rgb(13,220,44);"/>
        </g>
        <g transform="matrix(10,0,0,-10,0,10240)">
            <path d="M751.2,337.7C756.2,342.2 757.7,349.4 755.5,358.6C751.3,376.8 726.6,415.2 708.3,432C687.8,450.8 679,451.4 636.8,437.3L617.2,430.7L616.6,425.1C616.3,422 615.9,415.9 615.8,411.5C615.4,401.8 614.4,402 632.5,408.4C648,414 662.9,417.9 671.6,418.7C683,419.8 689.3,415.7 701.2,399.8C708.5,390.1 713.3,381.7 725.4,358.2C734.2,341 735.9,338.3 739,336.7C743.1,334.6 748.3,335 751.2,337.7Z" style="fill:rgb(13,220,44);"/>
        </g>
        <g transform="matrix(10,0,0,-10,0,10240)">
            <path d="M473.4,382.8C491.7,396.5 514,406.7 536,411.5C552,415 578.3,414.5 594.8,410.4C598.3,409.5 601.3,409 601.5,409.2C601.7,409.4 602.2,418.6 602.6,429.5C603.4,452.4 604.1,450.6 593.5,454.5C570.3,463.3 531,463.2 500.5,454.4C491.1,451.8 473.9,444.1 467.6,439.7L463.9,437.2L466.9,433.8C472.7,427.1 473,420.8 467.4,419.4C463.9,418.5 459.8,421.3 450.8,431C426.3,456.9 417.7,480.1 416.3,523.1C415.6,543.9 416.1,546.3 421.7,553.7C428.2,562.2 430.5,568.5 430.5,577.6C430.5,584.8 430.2,586.1 427.7,589.9C423.5,596.3 416.2,599.3 406.5,598.8C396.8,598.3 391.8,595.1 387.5,586.6C384.6,580.7 384.6,580.4 384.2,561.2C382.7,489.8 400.9,437.8 440.8,399.9C450.1,391 465.3,379 467.2,379C467.8,379 470.6,380.7 473.4,382.8Z" style="fill:rgb(13,220,44);"/>
        </g>
        <g transform="matrix(10,0,0,-10,0,10240)">
            <path d="M572.1,196C594.1,200.5 610.8,208.9 626.5,223.3L633.4,229.7L627.8,230.3C615.8,231.7 607,238.2 602,249.4C597.9,258.3 596.6,266.4 597.3,278.3C598.2,294.5 602.6,306.3 611.4,315.8C617.6,322.6 622,324.5 631.5,324.5C638.4,324.5 640.1,324.1 644.1,321.8C648.4,319.3 654,313.8 656.7,309.4C657.8,307.6 657.9,307.6 657.9,309.7C658.1,314.6 655.7,327.9 653.3,335.5C644,365.1 622.3,387.3 594.7,395.9C584.1,399.1 575.7,400.2 561.3,400.1C527.9,399.9 496.7,387.2 472.7,364.1C459.2,351.1 451.3,338.2 445.8,320C442.6,309.6 442.2,285.6 444.9,272.2C453.4,231.1 482.7,203.3 525.5,195.6C537.9,193.4 560.2,193.6 572.1,196Z" style="fill:rgb(13,220,44);"/>
        </g>
        <g transform="matrix(10,0,0,-10,0,10240)">
            <path d="M638.2,243.5C650.5,251.6 658,278.8 652.8,296C649.5,306.7 640.8,316 634.1,316C631.8,316 631.9,315.9 634.8,312.6C639.3,307.4 641.5,300 641.4,289.4C641.4,281.2 641.1,279.7 638.2,273.7C634.4,266.1 629.9,262 624.3,261.4C616.6,260.4 609.3,267.7 606.5,279.2L605.2,284.5L605.1,276.5C604.9,257.8 611.7,244.8 623.8,241C627.8,239.7 634,240.8 638.2,243.5Z" style="fill:white;"/>
        </g>
        <path d="M4039,9671C3980,9611 4011,9554 4122,9520C4426,9428 4712,9160 4892,8798C4937,8709 5009,8509 5025,8434C5031,8404 5029,8402 4983,8385C4666,8266 4425,8013 4322,7690C4285,7573 4273,7510 4264,7383C4246,7114 4335,6815 4491,6621C4518,6587 4540,6556 4540,6551C4540,6546 4510,6520 4473,6493C4172,6273 3947,5960 3829,5599C3781,5451 3733,5221 3724,5092C3720,5038 3712,4997 3706,4995C3700,4993 3565,4987 3405,4981C2735,4955 2326,4891 2083,4775C1960,4715 1966,4735 1962,4330C1956,3705 1993,3201 2085,2660C2205,1956 2385,1486 2624,1250L2690,1186L2690,1113C2690,930 2785,828 3031,746C3553,571 4657,569 5190,741C5340,790 5465,878 5510,966C5529,1004 5536,1035 5538,1100L5542,1185L5612,1258C5693,1344 5768,1455 5838,1596L5889,1697L6027,1703C6727,1736 7348,2071 7707,2608C7988,3031 8081,3631 7920,3985C7844,4150 7707,4299 7560,4374C7411,4450 7276,4480 7079,4480C6970,4480 6724,4450 6697,4433C6687,4427 6691,4472 6708,4575C6712,4597 6715,4669 6714,4735C6714,4845 6712,4860 6687,4915C6652,4991 6601,5044 6526,5082C6440,5126 6357,5140 6181,5140C6039,5140 6028,5141 6035,5158C6099,5314 6140,5492 6165,5723C6169,5754 6174,5780 6177,5780C6181,5780 6251,5758 6334,5731C6599,5644 6640,5635 6781,5635L6906,5635L6991,5677C7037,5700 7107,5746 7146,5779C7338,5939 7607,6336 7691,6585C7726,6688 7724,6806 7686,6883C7638,6981 7544,7040 7433,7040C7366,7040 7323,7022 7268,6971C7223,6930 7213,6913 7135,6743C7017,6482 6852,6237 6774,6204C6745,6192 6729,6192 6638,6210C6518,6233 6328,6291 6324,6305C6322,6311 6343,6332 6370,6353C6489,6445 6640,6689 6690,6870C6741,7058 6755,7291 6724,7471C6660,7844 6411,8172 6063,8342C5987,8379 5960,8397 5960,8411C5960,8421 5971,8484 5986,8550C6052,8867 6170,9107 6354,9298C6450,9398 6526,9454 6641,9511C6740,9560 6760,9575 6760,9606C6760,9679 6705,9709 6617,9683C6386,9615 6128,9370 5986,9085C5897,8908 5850,8760 5810,8540C5791,8433 5802,8439 5686,8459C5601,8474 5354,8474 5281,8460C5193,8443 5196,8442 5177,8524C5125,8746 4984,9031 4830,9225C4757,9316 4604,9460 4516,9519C4377,9613 4172,9699 4087,9700C4077,9700 4055,9687 4039,9671ZM5721,8280C5941,8235 6108,8151 6265,8007L6334,7943L6278,7937C6158,7923 6070,7858 6020,7746C5979,7657 5966,7576 5973,7457C5982,7295 6026,7177 6114,7082C6176,7014 6220,6995 6315,6995C6384,6995 6401,6999 6441,7022C6484,7047 6540,7102 6567,7146C6578,7164 6579,7164 6579,7143C6581,7094 6557,6961 6533,6885C6440,6589 6223,6367 5947,6281C5841,6249 5757,6238 5613,6239C5279,6241 4967,6368 4727,6599C4592,6729 4513,6858 4458,7040C4426,7144 4422,7384 4449,7518C4534,7929 4827,8207 5255,8284C5379,8306 5602,8304 5721,8280ZM6382,7805C6505,7724 6580,7452 6528,7280C6495,7173 6408,7080 6341,7080C6318,7080 6319,7081 6348,7114C6393,7166 6415,7240 6414,7346C6414,7428 6411,7443 6382,7503C6344,7579 6299,7620 6243,7626C6166,7636 6093,7563 6065,7448L6052,7395L6051,7475C6049,7662 6117,7792 6238,7830C6278,7843 6340,7832 6382,7805ZM7512,6863C7562,6818 7577,6746 7555,6654C7513,6472 7266,6088 7083,5920C6878,5732 6790,5726 6368,5867L6172,5933L6166,5989C6163,6020 6159,6081 6158,6125C6154,6222 6144,6220 6325,6156C6480,6100 6629,6061 6716,6053C6830,6042 6893,6083 7012,6242C7085,6339 7133,6423 7254,6658C7342,6830 7359,6857 7390,6873C7431,6894 7483,6890 7512,6863ZM4734,6412C4917,6275 5140,6173 5360,6125C5520,6090 5783,6095 5948,6136C5983,6145 6013,6150 6015,6148C6017,6146 6022,6054 6026,5945C6034,5716 6041,5734 5935,5695C5703,5607 5310,5608 5005,5696C4911,5722 4739,5799 4676,5843L4639,5868L4669,5902C4727,5969 4730,6032 4674,6046C4639,6055 4598,6027 4508,5930C4263,5671 4177,5439 4163,5009C4156,4801 4161,4777 4217,4703C4282,4618 4305,4555 4305,4464C4305,4392 4302,4379 4277,4341C4235,4277 4162,4247 4065,4252C3968,4257 3918,4289 3875,4374C3846,4433 3846,4436 3842,4628C3827,5342 4009,5862 4408,6241C4501,6330 4653,6450 4672,6450C4678,6450 4706,6433 4734,6412ZM4612,5716C4779,5611 5031,5527 5265,5499C5376,5486 5639,5487 5735,5500C5778,5507 5856,5523 5907,5536C5958,5549 6002,5560 6004,5560C6020,5560 5949,5329 5909,5249C5885,5201 5874,5190 5831,5171C5697,5114 5468,5086 5253,5102C4985,5121 4725,5210 4503,5357C4440,5398 4420,5417 4420,5434C4420,5491 4531,5750 4556,5750C4558,5750 4583,5735 4612,5716ZM4530,5183C4772,5048 5022,4983 5335,4973C5481,4968 5523,4971 5634,4990C5705,5002 5774,5016 5786,5021C5799,5025 5810,5027 5810,5024C5810,5021 5785,4980 5755,4933C5700,4849 5530,4670 5505,4670C5498,4670 5464,4699 5431,4734C5325,4844 5184,4890 4954,4890C4817,4890 4783,4884 4764,4854C4750,4834 4750,4828 4765,4801L4781,4770L4899,4770C5222,4770 5379,4682 5406,4487C5415,4423 5386,4268 5269,3767C5252,3698 5249,3664 5256,3653C5261,3644 5302,3617 5345,3592C5443,3537 5532,3470 5564,3427C5626,3344 5632,3295 5585,3264C5563,3250 5549,3249 5477,3258C5260,3287 5009,3418 4984,3515C4979,3534 4986,3601 5004,3705C5020,3793 5047,3953 5066,4060C5103,4274 5109,4393 5085,4440C5059,4490 5027,4499 4814,4515C4487,4540 4449,4556 4372,4707C4345,4761 4319,4819 4316,4835C4305,4885 4353,5225 4376,5262C4379,5267 4394,5263 4408,5253C4423,5244 4478,5212 4530,5183ZM6412,4985C6443,4975 6484,4955 6503,4939C6621,4842 6614,4678 6465,4056C6429,3907 6400,3778 6400,3769C6400,3757 6424,3742 6478,3720C6726,3616 6860,3519 6860,3440C6860,3382 6819,3377 6647,3414C6488,3449 6271,3528 6228,3567C6197,3595 6205,3699 6285,4305C6317,4547 6320,4619 6297,4653C6268,4698 6227,4704 5978,4697L5750,4691L5804,4754C5834,4789 5882,4857 5911,4904C5944,4958 5971,4992 5984,4995C6075,5015 6333,5009 6412,4985ZM3708,4763L3705,4675L3530,4668C2953,4644 2712,4620 2454,4559C2379,4541 2370,4541 2319,4556C2225,4583 2129,4623 2133,4634C2135,4640 2156,4655 2181,4667C2332,4741 2694,4807 3068,4830C3303,4844 3343,4846 3538,4848L3711,4850L3708,4763ZM6166,4398C6057,3534 6062,3592 6090,3534C6115,3483 6114,3443 6084,3190C5962,2176 5775,1595 5481,1317C5309,1155 5025,1082 4440,1049C4014,1025 3381,1068 3099,1140C2841,1206 2720,1296 2572,1535C2325,1936 2143,2796 2100,3770C2089,4017 2087,4490 2096,4490C2099,4490 2148,4474 2203,4456C2364,4401 2570,4365 2860,4340C2976,4331 3524,4311 3685,4310L3755,4310L3775,4274C3808,4213 3884,4153 3957,4130C4120,4080 4289,4131 4380,4259L4415,4308L4515,4314C4570,4317 4697,4323 4798,4326L4981,4332L4976,4299C4973,4280 4961,4209 4949,4140C4938,4071 4914,3930 4895,3825C4846,3547 4846,3545 4870,3468C4888,3410 4898,3394 4952,3346C5057,3250 5280,3155 5452,3131C5590,3112 5681,3145 5721,3228C5748,3282 5743,3365 5710,3430C5676,3497 5587,3583 5484,3650C5432,3684 5390,3716 5390,3723C5390,3730 5421,3868 5459,4030C5497,4192 5532,4342 5535,4363C5543,4406 5539,4404 5690,4420C5813,4433 6003,4472 6104,4504C6143,4517 6176,4526 6178,4524C6180,4523 6175,4466 6166,4398ZM7334,4321C7458,4288 7551,4237 7641,4152C7761,4039 7826,3913 7855,3739C7898,3471 7841,3143 7703,2865C7577,2612 7414,2420 7168,2235C6856,1999 6471,1862 6042,1832C5954,1826 5940,1827 5945,1839C5952,1856 6014,2075 6030,2137L6040,2178L6108,2185C6635,2233 7060,2472 7331,2874C7430,3020 7486,3151 7526,3325C7553,3444 7551,3633 7521,3720C7456,3907 7318,4013 7109,4035C6980,4049 6760,3993 6619,3911C6581,3889 6550,3873 6550,3875C6550,3903 6656,4278 6666,4286C6679,4297 6815,4325 6928,4341C7028,4355 7246,4344 7334,4321ZM7165,3895C7396,3835 7473,3603 7374,3263C7318,3068 7221,2909 7066,2755C6813,2504 6503,2359 6131,2315L6077,2309L6083,2342C6086,2360 6100,2439 6114,2518C6149,2709 6195,3038 6216,3240C6226,3331 6235,3407 6236,3409C6238,3411 6272,3399 6312,3382C6417,3338 6571,3294 6689,3275C6841,3249 6926,3270 6970,3343C7011,3409 6983,3522 6906,3608C6871,3646 6801,3695 6698,3754C6671,3769 6650,3783 6650,3786C6650,3789 6678,3804 6713,3820C6894,3902 7043,3926 7165,3895ZM2965,1049C3241,960 3626,919 4170,918C4691,918 5095,970 5328,1068C5368,1084 5402,1095 5404,1092C5412,1078 5381,1007 5353,978C5278,899 5113,839 4845,796C4622,760 4535,755 4115,756C3745,756 3675,759 3523,778C3188,820 2978,882 2892,964C2851,1001 2830,1040 2830,1075L2830,1100L2868,1084C2888,1075 2932,1059 2965,1049Z" style="fill-rule:nonzero;"/>
        <g transform="matrix(10,0,0,-10,0,10240)">
            <path d="M526.5,243.5C537.8,250.1 543.7,264 542.8,281.9C541.9,297.5 536.2,309 526.7,314C521.2,316.9 519.6,316 523.3,312.2C528.5,306.7 530.5,300.5 530.5,289C530.5,280.1 530.2,277.8 528.3,274C523.6,264.6 515.3,259.3 507.6,260.7C498.4,262.3 490.7,273.6 490.6,285.5C490.5,289.8 490.2,291.6 489.5,290.9C487.7,289.1 488.3,269.1 490.4,263C496.9,243.6 512.5,235.2 526.5,243.5Z" style="fill:white;"/>
        </g>
        <path d="M5050,7921C4973,7894 4884,7799 4847,7706C4808,7609 4795,7510 4808,7403C4823,7286 4842,7226 4888,7154C4958,7047 5051,6991 5161,6990C5255,6990 5315,7013 5376,7075C5561,7260 5568,7631 5390,7833C5308,7926 5167,7963 5050,7921ZM5265,7805C5378,7739 5437,7600 5428,7421C5419,7265 5362,7150 5267,7100C5212,7071 5196,7080 5233,7118C5285,7173 5305,7235 5305,7350C5305,7439 5302,7462 5283,7500C5236,7594 5153,7647 5076,7633C4984,7617 4907,7504 4906,7385C4905,7342 4902,7324 4895,7331C4877,7349 4883,7549 4904,7610C4969,7804 5125,7888 5265,7805Z" style="fill-rule:nonzero;"/>
        <path d="M5250,6750C5216,6716 5225,6691 5295,6622C5411,6509 5576,6450 5774,6450C5837,6450 5908,6456 5938,6464C6074,6500 6220,6602 6220,6660C6220,6691 6193,6720 6163,6720C6152,6720 6116,6698 6082,6671C5882,6510 5576,6533 5365,6724C5310,6774 5281,6781 5250,6750Z" style="fill-rule:nonzero;"/>
        <path d="M2699,8079C2426,7794 2326,7503 2413,7252C2451,7143 2510,7060 2661,6904C2806,6754 2854,6683 2886,6575C2926,6437 2897,6298 2793,6120C2720,5997 2675,5899 2661,5832C2645,5755 2647,5622 2666,5559C2709,5413 2835,5240 2899,5240C2932,5240 2970,5272 2970,5301C2970,5310 2947,5348 2919,5386C2759,5600 2766,5767 2944,6053C3047,6218 3085,6341 3077,6485C3068,6664 3007,6778 2804,6991C2601,7204 2553,7299 2562,7474C2571,7636 2636,7774 2797,7973C2843,8029 2880,8084 2880,8095C2880,8133 2852,8160 2813,8160C2781,8160 2768,8151 2699,8079Z" style="fill-rule:nonzero;"/>
        <path d="M2095,6855C2081,6842 2070,6822 2070,6811C2070,6800 2101,6757 2138,6716C2218,6628 2253,6567 2276,6480C2305,6368 2283,6287 2171,6097C2077,5936 2055,5865 2055,5725C2055,5589 2080,5503 2153,5391C2207,5308 2326,5187 2368,5172C2404,5160 2438,5174 2446,5204C2455,5240 2444,5265 2395,5320C2335,5387 2294,5449 2257,5528C2227,5591 2225,5601 2225,5710C2225,5847 2234,5874 2339,6053C2431,6210 2455,6286 2454,6410C2452,6585 2378,6715 2207,6844C2150,6886 2128,6889 2095,6855Z" style="fill-rule:nonzero;"/>
    </g>
</svg>
