<?xml version="1.0" encoding="UTF-8" standalone="no"?>
<!DOCTYPE svg PUBLIC "-//W3C//DTD SVG 1.1//EN" "http://www.w3.org/Graphics/SVG/1.1/DTD/svg11.dtd">
<svg width="100%" height="100%" viewBox="0 0 360 360" version="1.1" xmlns="http://www.w3.org/2000/svg" xmlns:xlink="http://www.w3.org/1999/xlink" xml:space="preserve" xmlns:serif="http://www.serif.com/" style="fill-rule:evenodd;clip-rule:evenodd;stroke-linejoin:round;stroke-miterlimit:2;">
    <g transform="matrix(0.1,0,0,-0.1,52,360)">
        <g transform="matrix(10,0,0,-10,0,3600)">
            <path d="M197.3,307L201.5,310.9L189.9,311C183.5,311 176.9,310.7 175.2,310.4L172.2,309.8L175.3,307C179.4,303.5 180.4,303.2 187.3,303.1C192.7,303 193.3,303.3 197.3,307Z" style="fill:rgb(47,185,50);"/>
        </g>
        <g transform="matrix(10,0,0,-10,0,3600)">
            <path d="M81.1,306.9L85.5,310.8L71.2,311.2C56.6,311.5 55,311.1 58.8,307.7C61.8,305 67.3,303.1 72.1,303C76.1,303 77.3,303.5 81.1,306.9Z" style="fill:rgb(47,185,50);"/>
        </g>
        <g transform="matrix(10,0,0,-10,0,3600)">
            <path d="M191.8,29.2C193.5,30.9 193.3,35.6 191.4,37.5C190,38.9 189.5,38.9 187.6,37.7C185.2,36.1 184.3,31.5 186.1,29.4C187.5,27.7 190.2,27.6 191.8,29.2Z" style="fill:rgb(47,185,50);"/>
        </g>
        <g transform="matrix(10,0,0,-10,0,3600)">
            <path d="M72.2,30.6C73.5,33.4 72.7,35.5 69.7,37.4C67.7,38.7 64,35.6 64,32.5C64,27.6 70.2,26.2 72.2,30.6Z" style="fill:rgb(47,185,50);"/>
        </g>
        <g transform="matrix(10,0,0,-10,0,3600)">
            <path d="M168.1,239.3C168.1,272.2 167.8,275 163.6,284.4C158.3,296.3 145.1,305.5 131.8,306.7C116,308.2 101.5,300.8 95,287.9C90.3,278.9 90,276.1 89.4,239.2C89,219.9 89,204 89.3,204C89.6,204 92.5,205.6 95.7,207.4C103.6,212.1 117.7,216.2 126.5,216.3C137.9,216.5 153.4,211.8 162.6,205.6L166.5,203L167.3,205.3C167.8,206.5 168.2,221.8 168.1,239.3Z" style="fill:rgb(41,134,42);"/>
        </g>
        <g transform="matrix(10,0,0,-10,0,3600)">
            <path d="M146.4,97.4C171.8,107 185.7,130.2 181.7,156.5C178.4,178 164.2,194.1 142.5,201C136.6,202.9 120.7,202.7 113.5,200.6C94.8,195.1 82.8,183.4 76.8,164.6C72.8,152.3 74.6,134.6 81,122C87,110.2 105,97.8 120,95C127.4,93.6 139,94.6 146.4,97.4Z" style="fill:rgb(47,185,50);"/>
        </g>
        <path d="M627,3396C578,3378 566,3368 545,3320C529,3285 529,3275 540,3235C556,3177 583,3143 627,3125C673,3106 710,3106 738,3126C759,3140 763,3140 800,3110C877,3049 960,2947 1000,2866C1052,2759 1058,2734 1031,2725C994,2714 858,2620 803,2568C687,2457 621,2296 621,2120C620,1976 670,1826 754,1716C787,1673 791,1664 781,1643C775,1630 770,1582 770,1536L770,1453L710,1447C634,1439 520,1399 475,1364C397,1305 390,1244 443,1091C484,974 548,855 633,742L690,665L638,659C543,648 451,581 435,511C430,486 424,482 400,482C362,483 340,464 340,429C340,366 282,370 1274,370C1897,370 2187,373 2208,381C2244,393 2255,417 2241,454C2232,477 2225,480 2186,480C2144,480 2141,482 2130,516C2105,592 1990,670 1902,670L1878,670L1900,698C1971,790 2028,871 2048,910C2060,935 2077,966 2085,980C2120,1040 2164,1159 2168,1206C2179,1332 2071,1418 1880,1438L1805,1445L1798,1534C1794,1583 1786,1634 1780,1646C1769,1665 1773,1675 1809,1723C1831,1754 1850,1782 1850,1786C1850,1789 1865,1817 1884,1848C1946,1950 1964,2099 1934,2252C1915,2345 1888,2407 1824,2496C1758,2590 1609,2710 1540,2725C1512,2731 1512,2731 1525,2773C1548,2848 1601,2946 1634,2975C1641,2981 1656,2999 1667,3016C1679,3033 1714,3066 1745,3090C1795,3129 1803,3132 1826,3121C1883,3095 1977,3126 2005,3180C2091,3346 1904,3488 1771,3358C1741,3329 1738,3322 1744,3283C1749,3243 1748,3239 1719,3224C1628,3178 1473,2978 1425,2846L1399,2775L1174,2775L1146,2842C1098,2961 992,3103 891,3187C829,3238 826,3242 825,3286C825,3326 819,3337 787,3366C767,3385 740,3400 728,3400C715,3400 696,3402 685,3405C674,3408 648,3403 627,3396ZM722,3294C735,3266 727,3245 697,3226C677,3213 640,3244 640,3275C640,3324 702,3338 722,3294ZM1918,3308C1935,3291 1933,3244 1914,3225C1900,3211 1895,3211 1876,3223C1852,3239 1843,3285 1861,3306C1875,3323 1902,3324 1918,3308ZM1464,2626C1718,2530 1857,2298 1817,2035C1784,1820 1642,1659 1425,1590C1366,1571 1207,1573 1135,1594C948,1649 828,1766 768,1954C728,2077 746,2254 810,2380C870,2498 1050,2622 1200,2650C1274,2664 1390,2654 1464,2626ZM1681,1207C1681,878 1678,850 1636,756C1583,637 1451,545 1318,533C1160,518 1015,592 950,721C903,811 900,839 894,1208C890,1401 890,1560 893,1560C896,1560 925,1544 957,1526C1036,1479 1177,1438 1265,1437C1379,1435 1534,1482 1626,1544L1665,1570L1673,1547C1678,1535 1682,1382 1681,1207ZM763,1098C766,890 770,845 788,785C799,747 807,714 805,712C801,708 739,799 671,912C614,1005 516,1235 525,1251C540,1274 671,1325 751,1339C755,1340 760,1231 763,1098ZM1950,1304C2020,1272 2040,1253 2040,1220C2040,1180 2006,1088 1957,996C1904,896 1788,710 1779,710C1775,710 1779,738 1786,773C1795,810 1803,935 1807,1089L1813,1342L1854,1336C1877,1332 1920,1318 1950,1304ZM811,531L855,492L712,488C566,485 550,489 588,523C618,550 673,569 721,570C761,570 773,565 811,531ZM1973,530L2015,491L1899,490C1835,490 1769,493 1752,496L1722,502L1753,530C1794,565 1804,568 1873,569C1927,570 1933,567 1973,530ZM1600,510C1600,497 1593,490 1582,490C1556,490 1548,501 1561,517C1578,537 1600,533 1600,510ZM1010,495C1010,473 993,469 975,486C962,499 961,505 971,511C987,521 1010,511 1010,495Z" style="fill-rule:nonzero;"/>
        <path d="M921,2343C877,2321 830,2247 830,2200C830,2133 909,2050 973,2050C1046,2050 1120,2129 1120,2207C1120,2305 1004,2384 921,2343ZM1047,2284C1059,2265 1061,2254 1053,2241C1037,2216 1007,2221 996,2251C977,2306 1015,2332 1047,2284Z" style="fill-rule:nonzero;"/>
        <path d="M1528,2342C1473,2305 1455,2271 1455,2199C1455,2141 1458,2128 1480,2105C1535,2046 1599,2035 1663,2073C1766,2135 1765,2247 1661,2328C1612,2365 1569,2369 1528,2342ZM1644,2299C1674,2276 1677,2245 1653,2218C1630,2192 1595,2196 1571,2226C1545,2259 1545,2275 1570,2300C1595,2325 1611,2325 1644,2299Z" style="fill-rule:nonzero;"/>
        <g transform="matrix(10,0,0,-10,-520,3600)">
            <path d="M156.7,131.6C157.9,133.5 158.1,134.6 157.3,135.9C155.7,138.4 152.7,137.9 151.6,134.9C149.7,129.4 153.5,126.8 156.7,131.6Z" style="fill:white;"/>
        </g>
        <g transform="matrix(10,0,0,-10,-520,3600)">
            <path d="M216.4,130.1C219.4,132.4 219.7,135.5 217.3,138.2C215,140.8 211.5,140.4 209.1,137.4C206.5,134.1 206.5,132.5 209,130C211.5,127.5 213.1,127.5 216.4,130.1Z" style="fill:white;"/>
        </g>
        <g transform="matrix(10,0,0,-10,-520,3600)">
            <path d="M153.1,253.4C154.6,251.6 156.3,251.6 162.5,253.6C169.7,255.8 189.6,255.8 199,253.5C206.2,251.7 206.2,251.7 208.3,253.9C210.3,255.9 210.4,256.2 209,258.7C206.7,262.8 201.6,265.8 195.7,266.5C192.8,266.9 183.9,267 175.8,266.8C161.3,266.5 161.1,266.5 156.8,263.5C152.2,260.2 150.7,256.2 153.1,253.4Z"/>
        </g>
    </g>
</svg>
